# MagicaVoxel @ Ephtracy

# group
o 

# material
mtllib нож.mtl
usemtl palette

# normals
vn -1 0 0
vn 1 0 0
vn 0 0 1
vn 0 0 -1
vn 0 -1 0
vn 0 1 0

# texcoords
vt 0.966797 0.5
vt 0.994141 0.5

# verts
v 0.2 0.1 0
v 0.2 0.1 -0.1
v 0.2 0.6 0
v 0.2 0.6 -0.1
v 0.2 0.7 0
v 0.2 0.7 -0.1
v 0.2 0.8 0
v 0.2 0.8 -0.1
v 0.2 0.9 0
v 0.2 0.9 -0.1
v 0.2 1 0
v 0.2 1 -0.1
v 0.2 1.1 0
v 0.2 1.1 -0.1
v 0.2 1.2 0
v 0.2 1.2 -0.1
v 0.2 1.3 0
v 0.2 1.3 -0.1
v 0.3 0 0
v 0.3 0 -0.1
v 0.3 0.1 0.1
v 0.3 0.1 0
v 0.3 0.1 -0.1
v 0.3 0.1 -0.2
v 0.3 0.6 0.1
v 0.3 0.6 0
v 0.3 0.6 -0.1
v 0.3 0.6 -0.2
v 0.3 0.7 0
v 0.3 0.7 -0.1
v 0.3 0.8 0
v 0.3 0.8 -0.1
v 0.3 0.9 0
v 0.3 0.9 -0.1
v 0.3 1 0
v 0.3 1 -0.1
v 0.3 1.1 0
v 0.3 1.1 -0.1
v 0.3 1.2 0
v 0.3 1.2 -0.1
v 0.3 1.3 0
v 0.3 1.3 -0.1
v 0.3 1.4 0
v 0.3 1.4 -0.1
v 0.4 1.2 0
v 0.4 1.2 -0.1
v 0.4 1.3 0
v 0.4 1.3 -0.1
v 0.3 1.2 0
v 0.3 1.2 -0.1
v 0.3 1.3 0
v 0.3 1.3 -0.1
v 0.4 0 0
v 0.4 0 -0.1
v 0.4 0.1 0.1
v 0.4 0.1 0
v 0.4 0.1 -0.1
v 0.4 0.1 -0.2
v 0.4 0.6 0.1
v 0.4 0.6 0
v 0.4 0.6 -0.1
v 0.4 0.6 -0.2
v 0.4 0.7 0
v 0.4 0.7 -0.1
v 0.4 1.3 0
v 0.4 1.3 -0.1
v 0.4 1.4 0
v 0.4 1.4 -0.1
v 0.5 0.1 0
v 0.5 0.1 -0.1
v 0.5 0.6 0
v 0.5 0.6 -0.1
v 0.5 0.7 0
v 0.5 0.7 -0.1
v 0.5 1.3 0
v 0.5 1.3 -0.1
v 0.3 0.1 0.1
v 0.3 0.6 0.1
v 0.4 0.1 0.1
v 0.4 0.6 0.1
v 0.2 0.1 0
v 0.2 0.6 0
v 0.2 0.7 0
v 0.2 0.8 0
v 0.2 0.9 0
v 0.2 1 0
v 0.2 1.1 0
v 0.2 1.2 0
v 0.2 1.3 0
v 0.3 0 0
v 0.3 0.1 0
v 0.3 0.6 0
v 0.3 0.7 0
v 0.3 0.8 0
v 0.3 0.9 0
v 0.3 1 0
v 0.3 1.1 0
v 0.3 1.2 0
v 0.3 1.3 0
v 0.3 1.4 0
v 0.4 0 0
v 0.4 0.1 0
v 0.4 0.6 0
v 0.4 0.7 0
v 0.4 1.2 0
v 0.4 1.3 0
v 0.4 1.4 0
v 0.5 0.1 0
v 0.5 0.6 0
v 0.5 0.7 0
v 0.5 1.3 0
v 0.2 0.1 -0.1
v 0.2 0.6 -0.1
v 0.2 0.7 -0.1
v 0.2 0.8 -0.1
v 0.2 0.9 -0.1
v 0.2 1 -0.1
v 0.2 1.1 -0.1
v 0.2 1.2 -0.1
v 0.2 1.3 -0.1
v 0.3 0 -0.1
v 0.3 0.1 -0.1
v 0.3 0.6 -0.1
v 0.3 0.7 -0.1
v 0.3 0.8 -0.1
v 0.3 0.9 -0.1
v 0.3 1 -0.1
v 0.3 1.1 -0.1
v 0.3 1.2 -0.1
v 0.3 1.3 -0.1
v 0.3 1.4 -0.1
v 0.4 0 -0.1
v 0.4 0.1 -0.1
v 0.4 0.6 -0.1
v 0.4 0.7 -0.1
v 0.4 1.2 -0.1
v 0.4 1.3 -0.1
v 0.4 1.4 -0.1
v 0.5 0.1 -0.1
v 0.5 0.6 -0.1
v 0.5 0.7 -0.1
v 0.5 1.3 -0.1
v 0.3 0.1 -0.2
v 0.3 0.6 -0.2
v 0.4 0.1 -0.2
v 0.4 0.6 -0.2
v 0.3 0 0
v 0.4 0 0
v 0.3 0 -0.1
v 0.4 0 -0.1
v 0.3 0.1 0.1
v 0.4 0.1 0.1
v 0.2 0.1 0
v 0.3 0.1 0
v 0.4 0.1 0
v 0.5 0.1 0
v 0.2 0.1 -0.1
v 0.3 0.1 -0.1
v 0.4 0.1 -0.1
v 0.5 0.1 -0.1
v 0.3 0.1 -0.2
v 0.4 0.1 -0.2
v 0.4 0.7 0
v 0.5 0.7 0
v 0.4 0.7 -0.1
v 0.5 0.7 -0.1
v 0.2 0.8 0
v 0.3 0.8 0
v 0.2 0.8 -0.1
v 0.3 0.8 -0.1
v 0.2 1 0
v 0.3 1 0
v 0.2 1 -0.1
v 0.3 1 -0.1
v 0.2 1.2 0
v 0.3 1.2 0
v 0.2 1.2 -0.1
v 0.3 1.2 -0.1
v 0.3 1.3 0
v 0.4 1.3 0
v 0.3 1.3 -0.1
v 0.4 1.3 -0.1
v 0.3 0.6 0.1
v 0.4 0.6 0.1
v 0.3 0.6 0
v 0.4 0.6 0
v 0.5 0.6 0
v 0.3 0.6 -0.1
v 0.4 0.6 -0.1
v 0.5 0.6 -0.1
v 0.3 0.6 -0.2
v 0.4 0.6 -0.2
v 0.2 0.7 0
v 0.3 0.7 0
v 0.2 0.7 -0.1
v 0.3 0.7 -0.1
v 0.2 0.9 0
v 0.3 0.9 0
v 0.2 0.9 -0.1
v 0.3 0.9 -0.1
v 0.2 1.1 0
v 0.3 1.1 0
v 0.2 1.1 -0.1
v 0.3 1.1 -0.1
v 0.3 1.2 0
v 0.4 1.2 0
v 0.3 1.2 -0.1
v 0.4 1.2 -0.1
v 0.2 1.3 0
v 0.3 1.3 0
v 0.4 1.3 0
v 0.5 1.3 0
v 0.2 1.3 -0.1
v 0.3 1.3 -0.1
v 0.4 1.3 -0.1
v 0.5 1.3 -0.1
v 0.3 1.4 0
v 0.4 1.4 0
v 0.3 1.4 -0.1
v 0.4 1.4 -0.1

# faces
f 3/2/1 2/2/1 1/2/1
f 4/2/1 2/2/1 3/2/1
f 5/1/1 4/1/1 3/1/1
f 6/1/1 4/1/1 5/1/1
f 9/1/1 8/1/1 7/1/1
f 10/1/1 8/1/1 9/1/1
f 13/1/1 12/1/1 11/1/1
f 14/1/1 12/1/1 13/1/1
f 17/1/1 16/1/1 15/1/1
f 18/1/1 16/1/1 17/1/1
f 22/2/1 20/2/1 19/2/1
f 23/2/1 20/2/1 22/2/1
f 25/2/1 22/2/1 21/2/1
f 26/2/1 22/2/1 25/2/1
f 27/2/1 24/2/1 23/2/1
f 28/2/1 24/2/1 27/2/1
f 31/1/1 30/1/1 29/1/1
f 32/1/1 30/1/1 31/1/1
f 35/1/1 34/1/1 33/1/1
f 36/1/1 34/1/1 35/1/1
f 39/1/1 38/1/1 37/1/1
f 40/1/1 38/1/1 39/1/1
f 43/1/1 42/1/1 41/1/1
f 44/1/1 42/1/1 43/1/1
f 47/1/1 46/1/1 45/1/1
f 48/1/1 46/1/1 47/1/1
f 49/1/2 50/1/2 51/1/2
f 51/1/2 50/1/2 52/1/2
f 53/2/2 54/2/2 56/2/2
f 56/2/2 54/2/2 57/2/2
f 55/2/2 56/2/2 59/2/2
f 59/2/2 56/2/2 60/2/2
f 57/2/2 58/2/2 61/2/2
f 61/2/2 58/2/2 62/2/2
f 60/1/2 61/1/2 63/1/2
f 63/1/2 61/1/2 64/1/2
f 65/1/2 66/1/2 67/1/2
f 67/1/2 66/1/2 68/1/2
f 69/2/2 70/2/2 71/2/2
f 71/2/2 70/2/2 72/2/2
f 73/1/2 74/1/2 75/1/2
f 75/1/2 74/1/2 76/1/2
f 79/2/3 78/2/3 77/2/3
f 80/2/3 78/2/3 79/2/3
f 91/2/3 82/2/3 81/2/3
f 92/1/3 83/1/3 82/1/3
f 92/2/3 82/2/3 91/2/3
f 93/1/3 83/1/3 92/1/3
f 94/1/3 85/1/3 84/1/3
f 95/1/3 85/1/3 94/1/3
f 96/1/3 87/1/3 86/1/3
f 97/1/3 87/1/3 96/1/3
f 98/1/3 89/1/3 88/1/3
f 99/1/3 89/1/3 98/1/3
f 101/2/3 91/2/3 90/2/3
f 102/2/3 91/2/3 101/2/3
f 103/1/3 97/1/3 96/1/3
f 103/1/3 93/1/3 92/1/3
f 103/1/3 95/1/3 94/1/3
f 103/1/3 98/1/3 97/1/3
f 103/1/3 96/1/3 95/1/3
f 103/1/3 94/1/3 93/1/3
f 104/1/3 98/1/3 103/1/3
f 105/1/3 98/1/3 104/1/3
f 106/1/3 100/1/3 99/1/3
f 107/1/3 100/1/3 106/1/3
f 108/2/3 103/2/3 102/2/3
f 109/2/3 103/2/3 108/2/3
f 110/1/3 105/1/3 104/1/3
f 110/1/3 106/1/3 105/1/3
f 111/1/3 106/1/3 110/1/3
f 112/2/4 113/2/4 122/2/4
f 113/1/4 114/1/4 123/1/4
f 122/2/4 113/2/4 123/2/4
f 123/1/4 114/1/4 124/1/4
f 115/1/4 116/1/4 125/1/4
f 125/1/4 116/1/4 126/1/4
f 117/1/4 118/1/4 127/1/4
f 127/1/4 118/1/4 128/1/4
f 119/1/4 120/1/4 129/1/4
f 129/1/4 120/1/4 130/1/4
f 121/2/4 122/2/4 132/2/4
f 132/2/4 122/2/4 133/2/4
f 127/1/4 128/1/4 134/1/4
f 123/1/4 124/1/4 134/1/4
f 125/1/4 126/1/4 134/1/4
f 128/1/4 129/1/4 134/1/4
f 126/1/4 127/1/4 134/1/4
f 124/1/4 125/1/4 134/1/4
f 134/1/4 129/1/4 135/1/4
f 135/1/4 129/1/4 136/1/4
f 130/1/4 131/1/4 137/1/4
f 137/1/4 131/1/4 138/1/4
f 133/2/4 134/2/4 139/2/4
f 139/2/4 134/2/4 140/2/4
f 135/1/4 136/1/4 141/1/4
f 136/1/4 137/1/4 141/1/4
f 141/1/4 137/1/4 142/1/4
f 143/2/4 144/2/4 145/2/4
f 145/2/4 144/2/4 146/2/4
f 149/2/5 148/2/5 147/2/5
f 150/2/5 148/2/5 149/2/5
f 154/2/5 152/2/5 151/2/5
f 155/2/5 152/2/5 154/2/5
f 157/2/5 154/2/5 153/2/5
f 158/2/5 154/2/5 157/2/5
f 159/2/5 156/2/5 155/2/5
f 160/2/5 156/2/5 159/2/5
f 161/2/5 159/2/5 158/2/5
f 162/2/5 159/2/5 161/2/5
f 165/1/5 164/1/5 163/1/5
f 166/1/5 164/1/5 165/1/5
f 169/1/5 168/1/5 167/1/5
f 170/1/5 168/1/5 169/1/5
f 173/1/5 172/1/5 171/1/5
f 174/1/5 172/1/5 173/1/5
f 177/1/5 176/1/5 175/1/5
f 178/1/5 176/1/5 177/1/5
f 181/1/5 180/1/5 179/1/5
f 182/1/5 180/1/5 181/1/5
f 183/2/6 184/2/6 185/2/6
f 185/2/6 184/2/6 186/2/6
f 186/2/6 187/2/6 189/2/6
f 189/2/6 187/2/6 190/2/6
f 188/2/6 189/2/6 191/2/6
f 191/2/6 189/2/6 192/2/6
f 193/1/6 194/1/6 195/1/6
f 195/1/6 194/1/6 196/1/6
f 197/1/6 198/1/6 199/1/6
f 199/1/6 198/1/6 200/1/6
f 201/1/6 202/1/6 203/1/6
f 203/1/6 202/1/6 204/1/6
f 205/1/6 206/1/6 207/1/6
f 207/1/6 206/1/6 208/1/6
f 209/1/6 210/1/6 213/1/6
f 213/1/6 210/1/6 214/1/6
f 211/1/6 212/1/6 215/1/6
f 215/1/6 212/1/6 216/1/6
f 217/1/6 218/1/6 219/1/6
f 219/1/6 218/1/6 220/1/6
