# MagicaVoxel @ Ephtracy

# group
o 

# material
mtllib ПАТРОНЫ.mtl
usemtl palette

# normals
vn -1 0 0
vn 1 0 0
vn 0 0 1
vn 0 0 -1
vn 0 -1 0
vn 0 1 0

# texcoords
vt 0.0214844 0.5
vt 0.0917969 0.5
vt 0.982422 0.5
vt 0.994141 0.5

# verts
v -0.8 0 0.7
v -0.8 0 0.3
v -0.8 0.1 0.7
v -0.8 0.1 0.3
v -0.8 0.4 0.7
v -0.8 0.4 0.4
v -0.8 0.5 0.5
v -0.8 0.5 0.4
v -0.8 0.5 0.3
v -0.8 0.6 0.7
v -0.8 0.6 0.5
v -0.8 0.6 0.4
v -0.8 0.7 0.7
v -0.8 0.7 0.5
v 0 0.3 0.6
v 0 0.3 0.5
v 0 0.3 0.4
v 0 0.4 0.6
v 0 0.4 0.4
v -0.7 0.3 0.6
v -0.7 0.3 0.5
v -0.7 0.3 0.4
v -0.7 0.4 0.6
v -0.7 0.4 0.4
v 0.1 0 0.7
v 0.1 0 0.3
v 0.1 0.1 0.7
v 0.1 0.1 0.3
v 0.1 0.4 0.7
v 0.1 0.4 0.4
v 0.1 0.5 0.5
v 0.1 0.5 0.4
v 0.1 0.5 0.3
v 0.1 0.6 0.7
v 0.1 0.6 0.5
v 0.1 0.6 0.4
v 0.1 0.7 0.7
v 0.1 0.7 0.5
v -0.8 0 0.7
v -0.8 0.1 0.7
v -0.8 0.4 0.7
v -0.8 0.6 0.7
v -0.8 0.7 0.7
v 0.1 0 0.7
v 0.1 0.1 0.7
v 0.1 0.4 0.7
v 0.1 0.6 0.7
v 0.1 0.7 0.7
v -0.8 0.5 0.5
v -0.8 0.6 0.5
v 0.1 0.5 0.5
v 0.1 0.6 0.5
v -0.8 0.4 0.4
v -0.8 0.5 0.4
v -0.7 0.3 0.4
v -0.7 0.4 0.4
v -0.5 0.3 0.4
v -0.4 0.3 0.4
v -0.3 0.3 0.4
v -0.2 0.3 0.4
v -0.1 0.3 0.4
v 0 0.3 0.4
v 0 0.4 0.4
v 0.1 0.4 0.4
v 0.1 0.5 0.4
v -0.7 0.3 0.6
v -0.7 0.4 0.6
v -0.5 0.3 0.6
v -0.4 0.3 0.6
v -0.2 0.3 0.6
v -0.1 0.3 0.6
v 0 0.3 0.6
v 0 0.4 0.6
v -0.8 0.6 0.5
v -0.8 0.7 0.5
v 0.1 0.6 0.5
v 0.1 0.7 0.5
v -0.8 0.5 0.4
v -0.8 0.6 0.4
v 0.1 0.5 0.4
v 0.1 0.6 0.4
v -0.8 0 0.3
v -0.8 0.1 0.3
v -0.8 0.5 0.3
v 0.1 0 0.3
v 0.1 0.1 0.3
v 0.1 0.5 0.3
v -0.8 0 0.7
v 0.1 0 0.7
v -0.8 0 0.3
v 0.1 0 0.3
v -0.8 0.5 0.5
v 0.1 0.5 0.5
v -0.8 0.5 0.4
v 0.1 0.5 0.4
v -0.8 0.6 0.7
v 0.1 0.6 0.7
v -0.8 0.6 0.5
v 0.1 0.6 0.5
v -0.7 0.3 0.6
v -0.5 0.3 0.6
v -0.4 0.3 0.6
v -0.2 0.3 0.6
v -0.1 0.3 0.6
v 0 0.3 0.6
v -0.7 0.3 0.5
v -0.5 0.3 0.5
v -0.3 0.3 0.5
v -0.2 0.3 0.5
v -0.1 0.3 0.5
v 0 0.3 0.5
v -0.7 0.3 0.4
v -0.5 0.3 0.4
v -0.4 0.3 0.4
v -0.3 0.3 0.4
v -0.2 0.3 0.4
v -0.1 0.3 0.4
v 0 0.3 0.4
v -0.8 0.4 0.7
v 0.1 0.4 0.7
v -0.7 0.4 0.6
v 0 0.4 0.6
v -0.8 0.4 0.4
v -0.7 0.4 0.4
v 0 0.4 0.4
v 0.1 0.4 0.4
v -0.8 0.5 0.4
v 0.1 0.5 0.4
v -0.8 0.5 0.3
v 0.1 0.5 0.3
v -0.8 0.6 0.5
v 0.1 0.6 0.5
v -0.8 0.6 0.4
v 0.1 0.6 0.4
v -0.8 0.7 0.7
v 0.1 0.7 0.7
v -0.8 0.7 0.5
v 0.1 0.7 0.5

# faces
f 3/1/1 2/1/1 1/1/1
f 4/1/1 2/1/1 3/1/1
f 5/4/1 4/4/1 3/4/1
f 6/4/1 4/4/1 5/4/1
f 8/4/1 4/4/1 6/4/1
f 9/4/1 4/4/1 8/4/1
f 11/4/1 8/4/1 7/4/1
f 12/4/1 8/4/1 11/4/1
f 13/4/1 11/4/1 10/4/1
f 14/4/1 11/4/1 13/4/1
f 18/4/1 16/4/1 15/4/1
f 18/4/1 17/4/1 16/4/1
f 19/4/1 17/4/1 18/4/1
f 20/4/2 21/4/2 23/4/2
f 21/4/2 22/4/2 23/4/2
f 23/4/2 22/4/2 24/4/2
f 25/1/2 26/1/2 27/1/2
f 27/1/2 26/1/2 28/1/2
f 27/4/2 28/4/2 29/4/2
f 29/4/2 28/4/2 30/4/2
f 30/4/2 28/4/2 32/4/2
f 32/4/2 28/4/2 33/4/2
f 31/4/2 32/4/2 35/4/2
f 35/4/2 32/4/2 36/4/2
f 34/4/2 35/4/2 37/4/2
f 37/4/2 35/4/2 38/4/2
f 44/1/3 40/1/3 39/1/3
f 45/4/3 41/4/3 40/4/3
f 45/1/3 40/1/3 44/1/3
f 46/4/3 41/4/3 45/4/3
f 47/4/3 43/4/3 42/4/3
f 48/4/3 43/4/3 47/4/3
f 51/4/3 50/4/3 49/4/3
f 52/4/3 50/4/3 51/4/3
f 56/4/3 54/4/3 53/4/3
f 57/4/3 56/4/3 55/4/3
f 58/4/3 56/4/3 57/4/3
f 59/4/3 56/4/3 58/4/3
f 60/4/3 56/4/3 59/4/3
f 61/4/3 56/4/3 60/4/3
f 62/4/3 56/4/3 61/4/3
f 63/4/3 54/4/3 56/4/3
f 63/4/3 56/4/3 62/4/3
f 64/4/3 54/4/3 63/4/3
f 65/4/3 54/4/3 64/4/3
f 66/4/4 67/4/4 68/4/4
f 68/4/4 67/4/4 69/4/4
f 69/4/4 67/4/4 70/4/4
f 70/4/4 67/4/4 71/4/4
f 71/4/4 67/4/4 72/4/4
f 72/4/4 67/4/4 73/4/4
f 74/4/4 75/4/4 76/4/4
f 76/4/4 75/4/4 77/4/4
f 78/4/4 79/4/4 80/4/4
f 80/4/4 79/4/4 81/4/4
f 82/1/4 83/1/4 85/1/4
f 83/4/4 84/4/4 86/4/4
f 85/1/4 83/1/4 86/1/4
f 86/4/4 84/4/4 87/4/4
f 90/1/5 89/1/5 88/1/5
f 91/1/5 89/1/5 90/1/5
f 94/4/5 93/4/5 92/4/5
f 95/4/5 93/4/5 94/4/5
f 98/4/5 97/4/5 96/4/5
f 99/4/5 97/4/5 98/4/5
f 100/2/6 101/2/6 106/2/6
f 101/3/6 102/3/6 107/3/6
f 106/2/6 101/2/6 107/2/6
f 102/2/6 103/2/6 108/2/6
f 103/3/6 104/3/6 109/3/6
f 108/2/6 103/2/6 109/2/6
f 104/1/6 105/1/6 110/1/6
f 109/3/6 104/3/6 110/3/6
f 110/1/6 105/1/6 111/1/6
f 106/1/6 107/1/6 112/1/6
f 107/3/6 102/3/6 113/3/6
f 112/1/6 107/1/6 113/1/6
f 102/2/6 108/2/6 114/2/6
f 113/3/6 102/3/6 114/3/6
f 108/1/6 109/1/6 115/1/6
f 114/2/6 108/2/6 115/2/6
f 109/3/6 110/3/6 116/3/6
f 115/1/6 109/1/6 116/1/6
f 110/2/6 111/2/6 117/2/6
f 116/3/6 110/3/6 117/3/6
f 117/2/6 111/2/6 118/2/6
f 119/4/6 120/4/6 121/4/6
f 121/4/6 120/4/6 122/4/6
f 119/4/6 121/4/6 123/4/6
f 123/4/6 121/4/6 124/4/6
f 122/4/6 120/4/6 125/4/6
f 125/4/6 120/4/6 126/4/6
f 127/4/6 128/4/6 129/4/6
f 129/4/6 128/4/6 130/4/6
f 131/4/6 132/4/6 133/4/6
f 133/4/6 132/4/6 134/4/6
f 135/4/6 136/4/6 137/4/6
f 137/4/6 136/4/6 138/4/6
