# MagicaVoxel @ Ephtracy

# group
o 

# material
mtllib спальный мешок(sprite 1).mtl
usemtl palette

# normals
vn -1 0 0
vn 1 0 0
vn 0 0 1
vn 0 0 -1
vn 0 -1 0
vn 0 1 0

# texcoords
vt 0.0917969 0.5
vt 0.779297 0.5
vt 0.861328 0.5
vt 0.958984 0.5

# verts
v -0.5 0 1.6
v -0.5 0 -1.1
v -0.5 0.1 1.6
v -0.5 0.1 0.1
v -0.5 0.1 -1.1
v -0.5 0.2 0.2
v -0.5 0.2 0.1
v -0.5 0.3 1.6
v -0.5 0.3 0.2
v -0.4 0 1.9
v -0.4 0 1.6
v -0.4 0 -1.1
v -0.4 0 -1.2
v -0.4 0.1 1.9
v -0.4 0.1 1.6
v -0.4 0.1 -0.3
v -0.4 0.1 -0.9
v -0.4 0.1 -1.1
v -0.4 0.1 -1.2
v -0.4 0.3 1.9
v -0.4 0.3 1.6
v -0.4 0.3 -0.3
v -0.4 0.3 -0.9
v -0.3 0.1 0.1
v -0.3 0.1 0
v -0.3 0.1 -0.1
v -0.3 0.1 -0.3
v -0.3 0.1 -0.9
v -0.3 0.1 -1
v -0.3 0.2 0.2
v -0.3 0.2 0.1
v -0.3 0.2 0
v -0.3 0.2 -0.1
v -0.3 0.2 -0.2
v -0.3 0.3 0.2
v -0.3 0.3 0.1
v -0.3 0.3 -0.2
v -0.3 0.3 -0.3
v -0.3 0.3 -0.9
v -0.3 0.3 -1
v 0 0.1 0
v 0 0.1 -0.1
v 0 0.2 0
v 0 0.2 -0.1
v 0.1 0 -1.2
v 0.1 0 -1.3
v 0.1 0.1 -1.2
v 0.1 0.1 -1.3
v 0.1 0.2 0.1
v 0.1 0.2 0
v 0.1 0.3 0.1
v 0.1 0.3 0
v 0.4 0.2 0
v 0.4 0.2 -0.1
v 0.4 0.3 0
v 0.4 0.3 -0.1
v 0.8 0.2 -0.1
v 0.8 0.2 -0.2
v 0.8 0.3 -0.1
v 0.8 0.3 -0.2
v 1.2 0.2 -0.2
v 1.2 0.2 -0.3
v 1.2 0.3 -0.2
v 1.2 0.3 -0.3
v 1.4 0.2 -0.3
v 1.4 0.2 -0.4
v 1.4 0.3 -0.3
v 1.4 0.3 -0.4
v 0.5 0.2 -0.2
v 0.5 0.2 -0.3
v 0.5 0.3 -0.2
v 0.5 0.3 -0.3
v 1 0 -1.2
v 1 0 -1.3
v 1 0.1 -1.2
v 1 0.1 -1.3
v 1.2 0 1.9
v 1.2 0 1.8
v 1.2 0.1 1.9
v 1.2 0.1 1.8
v 1.2 0.1 -0.9
v 1.2 0.1 -1
v 1.2 0.2 -0.3
v 1.2 0.2 -0.4
v 1.2 0.3 1.9
v 1.2 0.3 1.8
v 1.2 0.3 -0.3
v 1.2 0.3 -0.4
v 1.2 0.3 -0.9
v 1.2 0.3 -1
v 1.3 0 -1.1
v 1.3 0 -1.2
v 1.3 0.1 -0.5
v 1.3 0.1 -0.9
v 1.3 0.1 -1.1
v 1.3 0.1 -1.2
v 1.3 0.2 -0.4
v 1.3 0.2 -0.5
v 1.3 0.3 -0.4
v 1.3 0.3 -0.9
v 1.4 0 -0.5
v 1.4 0 -1.1
v 1.4 0.1 -0.4
v 1.4 0.1 -0.5
v 1.4 0.1 -1.1
v 1.4 0.2 -0.4
v 1.4 0.2 -0.5
v 1.5 0 0.7
v 1.5 0 -0.5
v 1.5 0.1 0.7
v 1.5 0.1 -0.4
v 1.5 0.1 -0.5
v 1.5 0.3 0.7
v 1.5 0.3 -0.4
v 1.6 0 1.8
v 1.6 0 0.7
v 1.6 0.1 1.8
v 1.6 0.1 0.7
v 1.6 0.3 1.8
v 1.6 0.3 0.7
v -0.4 0 1.9
v -0.4 0.1 1.9
v -0.4 0.3 1.9
v 1.2 0 1.9
v 1.2 0.1 1.9
v 1.2 0.3 1.9
v 1.2 0 1.8
v 1.2 0.1 1.8
v 1.2 0.3 1.8
v 1.6 0 1.8
v 1.6 0.1 1.8
v 1.6 0.3 1.8
v -0.5 0 1.6
v -0.5 0.1 1.6
v -0.5 0.3 1.6
v -0.4 0 1.6
v -0.4 0.1 1.6
v -0.4 0.3 1.6
v -0.3 0.1 -0.1
v -0.3 0.2 -0.1
v 0 0.1 -0.1
v 0 0.2 -0.1
v -0.3 0.2 -0.2
v -0.3 0.3 -0.2
v 0.5 0.2 -0.2
v 0.5 0.3 -0.2
v -0.4 0.1 -0.3
v -0.4 0.3 -0.3
v -0.3 0.1 -0.3
v -0.3 0.3 -0.3
v 0.5 0.2 -0.3
v 0.5 0.3 -0.3
v 1.2 0.2 -0.3
v 1.2 0.3 -0.3
v 1.2 0.2 -0.4
v 1.2 0.3 -0.4
v 1.3 0.2 -0.4
v 1.3 0.3 -0.4
v 1.5 0 0.7
v 1.5 0.1 0.7
v 1.5 0.3 0.7
v 1.6 0 0.7
v 1.6 0.1 0.7
v 1.6 0.3 0.7
v -0.5 0.2 0.2
v -0.5 0.3 0.2
v -0.3 0.2 0.2
v -0.3 0.3 0.2
v -0.5 0.1 0.1
v -0.5 0.2 0.1
v -0.3 0.1 0.1
v -0.3 0.2 0.1
v -0.3 0.3 0.1
v 0.1 0.2 0.1
v 0.1 0.3 0.1
v -0.3 0.1 0
v -0.3 0.2 0
v 0 0.1 0
v 0 0.2 0
v 0.1 0.2 0
v 0.1 0.3 0
v 0.4 0.2 0
v 0.4 0.3 0
v 0.4 0.2 -0.1
v 0.4 0.3 -0.1
v 0.6 0.2 -0.1
v 0.8 0.2 -0.1
v 0.8 0.3 -0.1
v 0.8 0.2 -0.2
v 0.8 0.3 -0.2
v 1.2 0.2 -0.2
v 1.2 0.3 -0.2
v 1.2 0.2 -0.3
v 1.2 0.3 -0.3
v 1.4 0.2 -0.3
v 1.4 0.3 -0.3
v 1.4 0.1 -0.4
v 1.4 0.2 -0.4
v 1.4 0.3 -0.4
v 1.5 0.1 -0.4
v 1.5 0.3 -0.4
v 1.3 0.1 -0.5
v 1.3 0.2 -0.5
v 1.4 0 -0.5
v 1.4 0.1 -0.5
v 1.4 0.2 -0.5
v 1.5 0 -0.5
v 1.5 0.1 -0.5
v -0.4 0.1 -0.9
v -0.4 0.3 -0.9
v -0.3 0.1 -0.9
v -0.3 0.3 -0.9
v 1.2 0.1 -0.9
v 1.2 0.3 -0.9
v 1.3 0.1 -0.9
v 1.3 0.3 -0.9
v -0.3 0.1 -1
v -0.3 0.3 -1
v 1.2 0.1 -1
v 1.2 0.3 -1
v -0.5 0 -1.1
v -0.5 0.1 -1.1
v -0.4 0 -1.1
v -0.4 0.1 -1.1
v 1.3 0 -1.1
v 1.3 0.1 -1.1
v 1.4 0 -1.1
v 1.4 0.1 -1.1
v -0.4 0 -1.2
v -0.4 0.1 -1.2
v 0.1 0 -1.2
v 0.1 0.1 -1.2
v 1 0 -1.2
v 1 0.1 -1.2
v 1.3 0 -1.2
v 1.3 0.1 -1.2
v 0.1 0 -1.3
v 0.1 0.1 -1.3
v 1 0 -1.3
v 1 0.1 -1.3
v -0.4 0 1.9
v 1.2 0 1.9
v 1.2 0 1.8
v 1.6 0 1.8
v -0.5 0 1.6
v -0.4 0 1.6
v 1.5 0 0.7
v 1.6 0 0.7
v 1.4 0 -0.5
v 1.5 0 -0.5
v -0.5 0 -1.1
v -0.4 0 -1.1
v 1.3 0 -1.1
v 1.4 0 -1.1
v -0.4 0 -1.2
v 0.1 0 -1.2
v 1 0 -1.2
v 1.3 0 -1.2
v 0.1 0 -1.3
v 1 0 -1.3
v -0.5 0.1 0.1
v -0.3 0.1 0.1
v -0.3 0.1 0
v 0 0.1 0
v -0.3 0.1 -0.1
v 0 0.1 -0.1
v -0.4 0.1 -0.3
v -0.3 0.1 -0.3
v 1.4 0.1 -0.4
v 1.5 0.1 -0.4
v 1.3 0.1 -0.5
v 1.4 0.1 -0.5
v 1.5 0.1 -0.5
v -0.4 0.1 -0.9
v -0.3 0.1 -0.9
v 1.2 0.1 -0.9
v 1.3 0.1 -0.9
v -0.3 0.1 -1
v 1.2 0.1 -1
v -0.5 0.1 -1.1
v -0.4 0.1 -1.1
v 1.3 0.1 -1.1
v 1.4 0.1 -1.1
v -0.4 0.1 -1.2
v 0.1 0.1 -1.2
v 1 0.1 -1.2
v 1.3 0.1 -1.2
v 0.1 0.1 -1.3
v 1 0.1 -1.3
v -0.5 0.2 0.2
v -0.3 0.2 0.2
v -0.5 0.2 0.1
v -0.3 0.2 0.1
v 0.1 0.2 0.1
v -0.3 0.2 0
v 0 0.2 0
v 0.1 0.2 0
v 0.4 0.2 0
v -0.3 0.2 -0.1
v 0 0.2 -0.1
v 0.4 0.2 -0.1
v 0.6 0.2 -0.1
v 0.8 0.2 -0.1
v -0.3 0.2 -0.2
v 0.5 0.2 -0.2
v 0.6 0.2 -0.2
v 0.8 0.2 -0.2
v 1.2 0.2 -0.2
v 0.5 0.2 -0.3
v 1.2 0.2 -0.3
v 1.4 0.2 -0.3
v 1.2 0.2 -0.4
v 1.3 0.2 -0.4
v 1.4 0.2 -0.4
v 1.3 0.2 -0.5
v 1.4 0.2 -0.5
v -0.4 0.3 1.9
v 1.2 0.3 1.9
v 1.2 0.3 1.8
v 1.6 0.3 1.8
v -0.5 0.3 1.6
v -0.4 0.3 1.6
v 1.5 0.3 0.7
v 1.6 0.3 0.7
v -0.5 0.3 0.2
v -0.3 0.3 0.2
v -0.3 0.3 0.1
v 0.1 0.3 0.1
v 0.1 0.3 0
v 0.4 0.3 0
v 0.4 0.3 -0.1
v 0.8 0.3 -0.1
v -0.3 0.3 -0.2
v 0.5 0.3 -0.2
v 0.8 0.3 -0.2
v 1.2 0.3 -0.2
v -0.4 0.3 -0.3
v -0.3 0.3 -0.3
v 0.5 0.3 -0.3
v 1.2 0.3 -0.3
v 1.4 0.3 -0.3
v 1.2 0.3 -0.4
v 1.3 0.3 -0.4
v 1.4 0.3 -0.4
v 1.5 0.3 -0.4
v -0.4 0.3 -0.9
v -0.3 0.3 -0.9
v 1.2 0.3 -0.9
v 1.3 0.3 -0.9
v -0.3 0.3 -1
v 1.2 0.3 -1

# faces
f 3/3/1 2/3/1 1/3/1
f 4/3/1 2/3/1 3/3/1
f 5/3/1 2/3/1 4/3/1
f 6/2/1 4/2/1 3/2/1
f 7/2/1 4/2/1 6/2/1
f 8/2/1 6/2/1 3/2/1
f 9/2/1 6/2/1 8/2/1
f 14/3/1 11/3/1 10/3/1
f 15/3/1 11/3/1 14/3/1
f 18/3/1 13/3/1 12/3/1
f 19/3/1 13/3/1 18/3/1
f 20/2/1 15/2/1 14/2/1
f 21/2/1 15/2/1 20/2/1
f 22/4/1 17/4/1 16/4/1
f 23/4/1 17/4/1 22/4/1
f 31/2/1 25/2/1 24/2/1
f 32/2/1 25/2/1 31/2/1
f 33/4/1 27/4/1 26/4/1
f 34/4/1 27/4/1 33/4/1
f 35/2/1 31/2/1 30/2/1
f 36/2/1 31/2/1 35/2/1
f 37/4/1 27/4/1 34/4/1
f 38/4/1 27/4/1 37/4/1
f 39/4/1 29/4/1 28/4/1
f 40/4/1 29/4/1 39/4/1
f 43/2/1 42/2/1 41/2/1
f 44/2/1 42/2/1 43/2/1
f 47/3/1 46/3/1 45/3/1
f 48/3/1 46/3/1 47/3/1
f 51/2/1 50/2/1 49/2/1
f 52/2/1 50/2/1 51/2/1
f 55/2/1 54/2/1 53/2/1
f 56/2/1 54/2/1 55/2/1
f 59/2/1 58/2/1 57/2/1
f 60/2/1 58/2/1 59/2/1
f 63/2/1 62/2/1 61/2/1
f 64/2/1 62/2/1 63/2/1
f 67/2/1 66/2/1 65/2/1
f 68/2/1 66/2/1 67/2/1
f 69/4/2 70/4/2 71/4/2
f 71/4/2 70/4/2 72/4/2
f 73/3/2 74/3/2 75/3/2
f 75/3/2 74/3/2 76/3/2
f 77/3/2 78/3/2 79/3/2
f 79/3/2 78/3/2 80/3/2
f 79/2/2 80/2/2 85/2/2
f 85/2/2 80/2/2 86/2/2
f 83/4/2 84/4/2 87/4/2
f 87/4/2 84/4/2 88/4/2
f 81/4/2 82/4/2 89/4/2
f 89/4/2 82/4/2 90/4/2
f 91/3/2 92/3/2 95/3/2
f 95/3/2 92/3/2 96/3/2
f 93/4/2 94/4/2 98/4/2
f 97/4/2 98/4/2 99/4/2
f 98/4/2 94/4/2 100/4/2
f 99/4/2 98/4/2 100/4/2
f 101/3/2 102/3/2 104/3/2
f 104/3/2 102/3/2 105/3/2
f 103/4/2 104/4/2 106/4/2
f 106/4/2 104/4/2 107/4/2
f 108/3/2 109/3/2 110/3/2
f 110/3/2 109/3/2 111/3/2
f 111/3/2 109/3/2 112/3/2
f 110/2/2 111/2/2 113/2/2
f 113/2/2 111/2/2 114/2/2
f 115/3/2 116/3/2 117/3/2
f 117/3/2 116/3/2 118/3/2
f 117/2/2 118/2/2 119/2/2
f 119/2/2 118/2/2 120/2/2
f 124/3/3 122/3/3 121/3/3
f 125/2/3 123/2/3 122/2/3
f 125/3/3 122/3/3 124/3/3
f 126/2/3 123/2/3 125/2/3
f 130/3/3 128/3/3 127/3/3
f 131/2/3 129/2/3 128/2/3
f 131/3/3 128/3/3 130/3/3
f 132/2/3 129/2/3 131/2/3
f 136/3/3 134/3/3 133/3/3
f 137/2/3 135/2/3 134/2/3
f 137/3/3 134/3/3 136/3/3
f 138/2/3 135/2/3 137/2/3
f 141/4/3 140/4/3 139/4/3
f 142/4/3 140/4/3 141/4/3
f 145/4/3 144/4/3 143/4/3
f 146/4/3 144/4/3 145/4/3
f 149/4/3 148/4/3 147/4/3
f 150/4/3 148/4/3 149/4/3
f 153/4/3 152/4/3 151/4/3
f 154/4/3 152/4/3 153/4/3
f 157/4/3 156/4/3 155/4/3
f 158/4/3 156/4/3 157/4/3
f 159/3/4 160/3/4 162/3/4
f 160/2/4 161/2/4 163/2/4
f 162/3/4 160/3/4 163/3/4
f 163/2/4 161/2/4 164/2/4
f 165/2/4 166/2/4 167/2/4
f 167/2/4 166/2/4 168/2/4
f 169/2/4 170/2/4 171/2/4
f 171/2/4 170/2/4 172/2/4
f 172/2/4 173/2/4 174/2/4
f 174/2/4 173/2/4 175/2/4
f 176/2/4 177/2/4 178/2/4
f 178/2/4 177/2/4 179/2/4
f 180/2/4 181/2/4 182/2/4
f 182/2/4 181/2/4 183/2/4
f 184/2/4 185/2/4 186/2/4
f 186/2/4 185/2/4 187/2/4
f 187/2/4 185/2/4 188/2/4
f 189/2/4 190/2/4 191/2/4
f 191/2/4 190/2/4 192/2/4
f 193/2/4 194/2/4 195/2/4
f 195/2/4 194/2/4 196/2/4
f 197/2/4 198/2/4 200/2/4
f 198/2/4 199/2/4 200/2/4
f 200/2/4 199/2/4 201/2/4
f 202/4/4 203/4/4 205/4/4
f 205/4/4 203/4/4 206/4/4
f 204/3/4 205/3/4 207/3/4
f 207/3/4 205/3/4 208/3/4
f 209/4/4 210/4/4 211/4/4
f 211/4/4 210/4/4 212/4/4
f 213/4/4 214/4/4 215/4/4
f 215/4/4 214/4/4 216/4/4
f 217/4/4 218/4/4 219/4/4
f 219/4/4 218/4/4 220/4/4
f 221/3/4 222/3/4 223/3/4
f 223/3/4 222/3/4 224/3/4
f 225/3/4 226/3/4 227/3/4
f 227/3/4 226/3/4 228/3/4
f 229/3/4 230/3/4 231/3/4
f 231/3/4 230/3/4 232/3/4
f 233/3/4 234/3/4 235/3/4
f 235/3/4 234/3/4 236/3/4
f 237/3/4 238/3/4 239/3/4
f 239/3/4 238/3/4 240/3/4
f 243/3/5 242/3/5 241/3/5
f 246/3/5 243/3/5 241/3/5
f 246/3/5 244/3/5 243/3/5
f 247/3/5 244/3/5 246/3/5
f 247/3/5 246/3/5 245/3/5
f 248/3/5 244/3/5 247/3/5
f 249/3/5 247/3/5 245/3/5
f 250/3/5 247/3/5 249/3/5
f 251/3/5 249/3/5 245/3/5
f 252/3/5 249/3/5 251/3/5
f 253/3/5 249/3/5 252/3/5
f 254/3/5 249/3/5 253/3/5
f 255/3/5 253/3/5 252/3/5
f 256/3/5 253/3/5 255/3/5
f 257/3/5 253/3/5 256/3/5
f 258/3/5 253/3/5 257/3/5
f 259/3/5 257/3/5 256/3/5
f 260/3/5 257/3/5 259/3/5
f 261/3/6 262/3/6 263/3/6
f 261/3/6 263/3/6 265/3/6
f 263/3/6 264/3/6 265/3/6
f 265/3/6 264/3/6 266/3/6
f 261/3/6 265/3/6 267/3/6
f 267/3/6 265/3/6 268/3/6
f 269/3/6 270/3/6 272/3/6
f 272/3/6 270/3/6 273/3/6
f 261/3/6 267/3/6 274/3/6
f 271/3/6 272/3/6 277/3/6
f 274/3/6 275/3/6 278/3/6
f 276/3/6 277/3/6 279/3/6
f 274/3/6 278/3/6 280/3/6
f 278/3/6 279/3/6 280/3/6
f 261/3/6 274/3/6 280/3/6
f 280/3/6 279/3/6 281/3/6
f 279/3/6 277/3/6 282/3/6
f 281/3/6 279/3/6 282/3/6
f 277/3/6 272/3/6 282/3/6
f 282/3/6 272/3/6 283/3/6
f 281/3/6 282/3/6 284/3/6
f 284/3/6 282/3/6 285/3/6
f 285/3/6 282/3/6 286/3/6
f 286/3/6 282/3/6 287/3/6
f 285/3/6 286/3/6 288/3/6
f 288/3/6 286/3/6 289/3/6
f 290/2/6 291/2/6 292/2/6
f 292/2/6 291/2/6 293/2/6
f 293/2/6 294/2/6 295/2/6
f 295/2/6 294/2/6 296/2/6
f 296/2/6 294/2/6 297/2/6
f 297/2/6 298/2/6 300/2/6
f 296/2/6 297/2/6 300/2/6
f 300/2/6 298/2/6 301/2/6
f 299/4/6 300/4/6 304/4/6
f 300/4/6 301/4/6 304/4/6
f 301/4/6 302/4/6 304/4/6
f 304/4/6 302/4/6 305/4/6
f 302/2/6 303/2/6 306/2/6
f 305/4/6 302/4/6 306/4/6
f 306/2/6 303/2/6 307/2/6
f 307/4/6 308/4/6 309/4/6
f 306/4/6 307/4/6 309/4/6
f 305/4/6 306/4/6 309/4/6
f 309/4/6 308/4/6 310/4/6
f 310/4/6 311/4/6 312/4/6
f 312/4/6 311/4/6 313/4/6
f 313/4/6 311/4/6 314/4/6
f 313/4/6 314/4/6 315/4/6
f 315/4/6 314/4/6 316/4/6
f 317/2/6 318/2/6 319/2/6
f 317/2/6 319/2/6 322/2/6
f 319/2/6 320/2/6 322/2/6
f 322/2/6 320/2/6 323/2/6
f 321/2/6 322/2/6 323/2/6
f 323/2/6 320/2/6 324/2/6
f 321/2/6 323/2/6 325/2/6
f 325/2/6 323/2/6 326/2/6
f 326/2/6 323/2/6 327/2/6
f 327/2/6 323/2/6 328/2/6
f 328/2/6 323/2/6 329/2/6
f 329/2/6 323/2/6 330/2/6
f 330/2/6 323/2/6 331/2/6
f 331/2/6 323/2/6 332/2/6
f 332/2/6 323/2/6 335/2/6
f 335/2/6 323/2/6 336/2/6
f 333/4/6 334/4/6 338/4/6
f 338/4/6 334/4/6 339/4/6
f 336/2/6 323/2/6 340/2/6
f 340/2/6 323/2/6 341/2/6
f 338/4/6 339/4/6 342/4/6
f 337/4/6 338/4/6 342/4/6
f 339/4/6 340/4/6 342/4/6
f 341/2/6 323/2/6 344/2/6
f 344/2/6 323/2/6 345/2/6
f 342/4/6 343/4/6 346/4/6
f 337/4/6 342/4/6 346/4/6
f 346/4/6 343/4/6 347/4/6
f 347/4/6 343/4/6 348/4/6
f 348/4/6 343/4/6 349/4/6
f 347/4/6 348/4/6 350/4/6
f 350/4/6 348/4/6 351/4/6
