# MagicaVoxel @ Ephtracy

# group
o 

# material
mtllib спальный мешок (Sprite 2).mtl
usemtl palette

# normals
vn -1 0 0
vn 1 0 0
vn 0 0 1
vn 0 0 -1
vn 0 -1 0
vn 0 1 0

# texcoords
vt 0.857422 0.5
vt 0.861328 0.5

# verts
v -1.3 0 1.5
v -1.3 0 -0.5
v -1.3 0.1 1.5
v -1.3 0.1 -0.5
v -1.2 0 1.6
v -1.2 0 1.5
v -1.2 0 -0.5
v -1.2 0 -0.6
v -1.2 0.1 1.6
v -1.2 0.1 1.5
v -1.2 0.1 1.3
v -1.2 0.1 -0.3
v -1.2 0.1 -0.5
v -1.2 0.1 -0.6
v -1.2 0.2 1.3
v -1.2 0.2 -0.3
v -1.1 0.1 1.5
v -1.1 0.1 1.4
v -1.1 0.1 1.3
v -1.1 0.1 -0.3
v -1.1 0.1 -0.4
v -1.1 0.2 1.5
v -1.1 0.2 1.4
v -1.1 0.2 1.3
v -1.1 0.2 -0.3
v -1.1 0.2 -0.4
v -1 0.1 1.6
v -1 0.1 1.5
v -1 0.1 -0.4
v -1 0.1 -0.5
v -1 0.2 1.6
v -1 0.2 1.5
v -1 0.2 -0.4
v -1 0.2 -0.5
v -0.9 0.1 -0.5
v -0.9 0.1 -0.6
v -0.9 0.2 -0.5
v -0.9 0.2 -0.6
v -0.7 0.2 1.6
v -0.7 0.2 -0.6
v -0.7 0.3 -0.5
v -0.7 0.3 -0.6
v -0.7 0.7 -0.5
v -0.7 0.7 -0.6
v -0.7 0.8 1.6
v -0.7 0.8 -0.6
v -0.6 0.8 1.6
v -0.6 0.8 -0.5
v -0.6 0.8 -0.6
v -0.6 0.9 1.6
v -0.6 0.9 -0.5
v -0.6 0.9 -0.6
v -0.5 0.9 1.6
v -0.5 0.9 -0.5
v -0.5 0.9 -0.6
v -0.5 1 1.6
v -0.5 1 -0.5
v -0.5 1 -0.6
v -0.4 1 1.6
v -0.4 1 -0.5
v -0.4 1 -0.6
v -0.4 1.1 1.6
v -0.4 1.1 -0.6
v 0.0999999 0 1.6
v 0.0999999 0 -0.6
v 0.0999999 0.1 1.6
v 0.0999999 0.1 -0.6
v 0.0999999 1 1.6
v 0.0999999 1 -0.5
v 0.0999999 1 -0.6
v 0.0999999 1.1 1.6
v 0.0999999 1.1 -0.6
v 0.2 0.1 1.6
v 0.2 0.1 -0.6
v 0.2 0.2 1.6
v 0.2 0.2 -0.6
v 0.2 0.9 1.6
v 0.2 0.9 1.5
v 0.2 0.9 -0.5
v 0.2 0.9 -0.6
v 0.2 1 1.6
v 0.2 1 -0.5
v 0.2 1 -0.6
v 0.3 0.2 1.6
v 0.3 0.2 -0.6
v 0.3 0.3 1.6
v 0.3 0.3 -0.6
v 0.3 0.8 1.6
v 0.3 0.8 1.5
v 0.3 0.8 -0.5
v 0.3 0.8 -0.6
v 0.3 0.9 1.6
v 0.3 0.9 1.5
v 0.3 0.9 -0.5
v 0.3 0.9 -0.6
v 0.4 0.3 1.6
v 0.4 0.3 -0.6
v 0.4 0.8 1.6
v 0.4 0.8 -0.6
v -1.2 0 1.6
v -1.2 0.1 1.6
v -1 0.1 1.6
v -1 0.2 1.6
v -0.7 0.2 1.6
v -0.7 0.8 1.6
v -0.6 0.2 1.6
v -0.6 0.8 1.6
v -0.6 0.9 1.6
v -0.5 0.1 1.6
v -0.5 0.2 1.6
v -0.5 0.8 1.6
v -0.5 0.9 1.6
v -0.5 1 1.6
v -0.4 0.3 1.6
v -0.4 0.8 1.6
v -0.4 0.9 1.6
v -0.4 1 1.6
v -0.4 1.1 1.6
v -0.3 0.4 1.6
v -0.3 0.7 1.6
v -1.19209e-07 0.2 1.6
v -1.19209e-07 0.3 1.6
v -1.19209e-07 0.4 1.6
v -1.19209e-07 0.7 1.6
v 0.0999999 0 1.6
v 0.0999999 0.1 1.6
v 0.0999999 0.2 1.6
v 0.0999999 0.4 1.6
v 0.0999999 0.8 1.6
v 0.0999999 0.9 1.6
v 0.0999999 1 1.6
v 0.0999999 1.1 1.6
v 0.2 0.1 1.6
v 0.2 0.2 1.6
v 0.2 0.3 1.6
v 0.2 0.8 1.6
v 0.2 0.9 1.6
v 0.2 1 1.6
v 0.3 0.2 1.6
v 0.3 0.3 1.6
v 0.3 0.8 1.6
v 0.3 0.9 1.6
v 0.4 0.3 1.6
v 0.4 0.8 1.6
v -1.3 0 1.5
v -1.3 0.1 1.5
v -1.2 0 1.5
v -1.2 0.1 1.5
v -1.1 0.1 1.5
v -1.1 0.2 1.5
v -1 0.1 1.5
v -1 0.2 1.5
v -1.2 0.1 1.3
v -1.2 0.2 1.3
v -1.1 0.1 1.3
v -1.1 0.2 1.3
v -1.2 0.1 -0.3
v -1.2 0.2 -0.3
v -1.1 0.1 -0.3
v -1.1 0.2 -0.3
v -1.1 0.1 -0.4
v -1.1 0.2 -0.4
v -1 0.1 -0.4
v -1 0.2 -0.4
v -1.3 0 -0.5
v -1.3 0.1 -0.5
v -1.2 0 -0.5
v -1.2 0.1 -0.5
v -1 0.1 -0.5
v -1 0.2 -0.5
v -0.9 0.1 -0.5
v -0.9 0.2 -0.5
v -1.2 0 -0.6
v -1.2 0.1 -0.6
v -0.9 0.1 -0.6
v -0.9 0.2 -0.6
v -0.7 0.2 -0.6
v -0.7 0.3 -0.6
v -0.7 0.7 -0.6
v -0.7 0.8 -0.6
v -0.6 0.2 -0.6
v -0.6 0.3 -0.6
v -0.6 0.4 -0.6
v -0.6 0.6 -0.6
v -0.6 0.7 -0.6
v -0.6 0.8 -0.6
v -0.6 0.9 -0.6
v -0.5 0.1 -0.6
v -0.5 0.2 -0.6
v -0.5 0.3 -0.6
v -0.5 0.4 -0.6
v -0.5 0.6 -0.6
v -0.5 0.7 -0.6
v -0.5 0.8 -0.6
v -0.5 0.9 -0.6
v -0.5 1 -0.6
v -0.4 0.2 -0.6
v -0.4 0.3 -0.6
v -0.4 0.5 -0.6
v -0.4 0.6 -0.6
v -0.4 0.7 -0.6
v -0.4 0.8 -0.6
v -0.4 0.9 -0.6
v -0.4 1 -0.6
v -0.4 1.1 -0.6
v -0.3 0.6 -0.6
v -0.3 0.7 -0.6
v -0.2 0.2 -0.6
v -0.2 0.3 -0.6
v -0.2 0.8 -0.6
v -0.2 0.9 -0.6
v -0.1 0.1 -0.6
v -0.1 0.2 -0.6
v -0.1 0.5 -0.6
v -0.1 0.7 -0.6
v -1.19209e-07 0.3 -0.6
v -1.19209e-07 0.4 -0.6
v -1.19209e-07 0.6 -0.6
v -1.19209e-07 0.8 -0.6
v -1.19209e-07 0.9 -0.6
v 0.0999999 0 -0.6
v 0.0999999 0.1 -0.6
v 0.0999999 0.2 -0.6
v 0.0999999 0.3 -0.6
v 0.0999999 0.4 -0.6
v 0.0999999 0.5 -0.6
v 0.0999999 0.6 -0.6
v 0.0999999 0.8 -0.6
v 0.0999999 0.9 -0.6
v 0.0999999 1 -0.6
v 0.0999999 1.1 -0.6
v 0.2 0.1 -0.6
v 0.2 0.2 -0.6
v 0.2 0.3 -0.6
v 0.2 0.4 -0.6
v 0.2 0.5 -0.6
v 0.2 0.8 -0.6
v 0.2 0.9 -0.6
v 0.2 1 -0.6
v 0.3 0.2 -0.6
v 0.3 0.3 -0.6
v 0.3 0.4 -0.6
v 0.3 0.8 -0.6
v 0.3 0.9 -0.6
v 0.4 0.3 -0.6
v 0.4 0.8 -0.6
v -1.2 0 1.6
v 0.0999999 0 1.6
v -1.3 0 1.5
v -1.2 0 1.5
v -1.3 0 -0.5
v -1.2 0 -0.5
v -1.2 0 -0.6
v 0.0999999 0 -0.6
v 0.0999999 0.1 1.6
v 0.2 0.1 1.6
v 0.0999999 0.1 -0.6
v 0.2 0.1 -0.6
v 0.2 0.2 1.6
v 0.3 0.2 1.6
v 0.2 0.2 -0.6
v 0.3 0.2 -0.6
v 0.3 0.3 1.6
v 0.4 0.3 1.6
v 0.3 0.3 -0.6
v 0.4 0.3 -0.6
v -1.2 0.1 1.6
v -1 0.1 1.6
v -1.3 0.1 1.5
v -1.2 0.1 1.5
v -1.1 0.1 1.5
v -1 0.1 1.5
v -1.1 0.1 1.4
v -1.2 0.1 1.3
v -1.1 0.1 1.3
v -1.2 0.1 -0.3
v -1.1 0.1 -0.3
v -1.1 0.1 -0.4
v -1 0.1 -0.4
v -1.3 0.1 -0.5
v -1.2 0.1 -0.5
v -1 0.1 -0.5
v -0.9 0.1 -0.5
v -1.2 0.1 -0.6
v -0.9 0.1 -0.6
v -1 0.2 1.6
v -0.7 0.2 1.6
v -1.1 0.2 1.5
v -1 0.2 1.5
v -1.1 0.2 1.4
v -1 0.2 1.4
v -1.2 0.2 1.3
v -1.1 0.2 1.3
v -1 0.2 0.8
v -0.9 0.2 0.8
v -1.1 0.2 0.7
v -1 0.2 0.7
v -0.9 0.2 0.3
v -0.8 0.2 0.3
v -1 0.2 0.1
v -0.9 0.2 0.1
v -1.2 0.2 -0.3
v -1.1 0.2 -0.3
v -1.1 0.2 -0.4
v -1 0.2 -0.4
v -0.9 0.2 -0.4
v -0.8 0.2 -0.4
v -1 0.2 -0.5
v -0.9 0.2 -0.5
v -0.9 0.2 -0.6
v -0.7 0.2 -0.6
v -0.7 0.8 1.6
v -0.6 0.8 1.6
v 0.3 0.8 1.6
v 0.4 0.8 1.6
v 0.3 0.8 1.5
v -0.6 0.8 -0.5
v 0.3 0.8 -0.5
v -0.7 0.8 -0.6
v -0.6 0.8 -0.6
v 0.3 0.8 -0.6
v 0.4 0.8 -0.6
v -0.6 0.9 1.6
v -0.5 0.9 1.6
v 0.2 0.9 1.6
v 0.3 0.9 1.6
v 0.2 0.9 1.5
v 0.3 0.9 1.5
v -0.6 0.9 -0.5
v -0.5 0.9 -0.5
v 0.2 0.9 -0.5
v 0.3 0.9 -0.5
v -0.6 0.9 -0.6
v -0.5 0.9 -0.6
v 0.2 0.9 -0.6
v 0.3 0.9 -0.6
v -0.5 1 1.6
v -0.4 1 1.6
v 0.0999999 1 1.6
v 0.2 1 1.6
v -0.5 1 -0.5
v -0.4 1 -0.5
v 0.0999999 1 -0.5
v 0.2 1 -0.5
v -0.5 1 -0.6
v -0.4 1 -0.6
v 0.0999999 1 -0.6
v 0.2 1 -0.6
v -0.4 1.1 1.6
v 0.0999999 1.1 1.6
v -0.4 1.1 -0.6
v 0.0999999 1.1 -0.6

# faces
f 3/1/1 2/1/1 1/1/1
f 4/1/1 2/1/1 3/1/1
f 9/1/1 6/1/1 5/1/1
f 10/1/1 6/1/1 9/1/1
f 13/1/1 8/1/1 7/1/1
f 14/1/1 8/1/1 13/1/1
f 15/1/1 12/1/1 11/1/1
f 16/1/1 12/1/1 15/1/1
f 22/1/1 18/1/1 17/1/1
f 23/2/1 19/2/1 18/2/1
f 23/1/1 18/1/1 22/1/1
f 24/2/1 19/2/1 23/2/1
f 25/1/1 21/1/1 20/1/1
f 26/1/1 21/1/1 25/1/1
f 31/1/1 28/1/1 27/1/1
f 32/1/1 28/1/1 31/1/1
f 33/1/1 30/1/1 29/1/1
f 34/1/1 30/1/1 33/1/1
f 37/1/1 36/1/1 35/1/1
f 38/1/1 36/1/1 37/1/1
f 41/1/1 40/1/1 39/1/1
f 42/1/1 40/1/1 41/1/1
f 43/1/1 41/1/1 39/1/1
f 43/2/1 42/2/1 41/2/1
f 44/2/1 42/2/1 43/2/1
f 45/1/1 43/1/1 39/1/1
f 45/1/1 44/1/1 43/1/1
f 46/1/1 44/1/1 45/1/1
f 50/1/1 48/1/1 47/1/1
f 51/2/1 49/2/1 48/2/1
f 51/1/1 48/1/1 50/1/1
f 52/2/1 49/2/1 51/2/1
f 56/1/1 54/1/1 53/1/1
f 57/2/1 55/2/1 54/2/1
f 57/1/1 54/1/1 56/1/1
f 58/2/1 55/2/1 57/2/1
f 62/1/1 60/1/1 59/1/1
f 62/1/1 61/1/1 60/1/1
f 63/1/1 61/1/1 62/1/1
f 64/1/2 65/1/2 66/1/2
f 66/1/2 65/1/2 67/1/2
f 68/1/2 69/1/2 71/1/2
f 69/1/2 70/1/2 71/1/2
f 71/1/2 70/1/2 72/1/2
f 73/1/2 74/1/2 75/1/2
f 75/1/2 74/1/2 76/1/2
f 77/1/2 78/1/2 81/1/2
f 78/1/2 79/1/2 81/1/2
f 79/2/2 80/2/2 82/2/2
f 81/1/2 79/1/2 82/1/2
f 82/2/2 80/2/2 83/2/2
f 84/1/2 85/1/2 86/1/2
f 86/1/2 85/1/2 87/1/2
f 88/2/2 89/2/2 92/2/2
f 89/1/2 90/1/2 93/1/2
f 92/2/2 89/2/2 93/2/2
f 90/2/2 91/2/2 94/2/2
f 93/1/2 90/1/2 94/1/2
f 94/2/2 91/2/2 95/2/2
f 96/1/2 97/1/2 98/1/2
f 98/1/2 97/1/2 99/1/2
f 102/1/3 101/1/3 100/1/3
f 104/1/3 103/1/3 102/1/3
f 106/1/3 104/1/3 102/1/3
f 106/1/3 105/1/3 104/1/3
f 107/1/3 105/1/3 106/1/3
f 109/1/3 102/1/3 100/1/3
f 109/1/3 106/1/3 102/1/3
f 110/2/3 107/2/3 106/2/3
f 110/1/3 106/1/3 109/1/3
f 111/1/3 108/1/3 107/1/3
f 111/2/3 107/2/3 110/2/3
f 112/1/3 108/1/3 111/1/3
f 114/1/3 111/1/3 110/1/3
f 115/2/3 112/2/3 111/2/3
f 115/1/3 111/1/3 114/1/3
f 116/1/3 113/1/3 112/1/3
f 116/2/3 112/2/3 115/2/3
f 117/1/3 113/1/3 116/1/3
f 119/2/3 115/2/3 114/2/3
f 120/2/3 115/2/3 119/2/3
f 121/2/3 110/2/3 109/2/3
f 121/1/3 114/1/3 110/1/3
f 122/2/3 119/2/3 114/2/3
f 122/1/3 114/1/3 121/1/3
f 123/1/3 120/1/3 119/1/3
f 123/2/3 119/2/3 122/2/3
f 124/2/3 115/2/3 120/2/3
f 124/1/3 120/1/3 123/1/3
f 125/1/3 109/1/3 100/1/3
f 126/2/3 122/2/3 121/2/3
f 126/1/3 109/1/3 125/1/3
f 126/2/3 121/2/3 109/2/3
f 127/2/3 122/2/3 126/2/3
f 128/1/3 123/1/3 122/1/3
f 128/2/3 124/2/3 123/2/3
f 129/2/3 115/2/3 124/2/3
f 129/2/3 124/2/3 128/2/3
f 129/1/3 116/1/3 115/1/3
f 130/2/3 117/2/3 116/2/3
f 130/1/3 116/1/3 129/1/3
f 131/1/3 118/1/3 117/1/3
f 131/2/3 117/2/3 130/2/3
f 132/1/3 118/1/3 131/1/3
f 133/1/3 127/1/3 126/1/3
f 134/2/3 122/2/3 127/2/3
f 134/1/3 127/1/3 133/1/3
f 135/1/3 128/1/3 122/1/3
f 135/2/3 122/2/3 134/2/3
f 135/1/3 129/1/3 128/1/3
f 136/2/3 130/2/3 129/2/3
f 136/1/3 129/1/3 135/1/3
f 137/1/3 131/1/3 130/1/3
f 137/2/3 130/2/3 136/2/3
f 138/1/3 131/1/3 137/1/3
f 139/1/3 135/1/3 134/1/3
f 140/2/3 137/2/3 136/2/3
f 140/1/3 135/1/3 139/1/3
f 140/2/3 136/2/3 135/2/3
f 141/2/3 137/2/3 140/2/3
f 142/2/3 137/2/3 141/2/3
f 143/1/3 141/1/3 140/1/3
f 144/1/3 141/1/3 143/1/3
f 147/1/3 146/1/3 145/1/3
f 148/1/3 146/1/3 147/1/3
f 151/1/3 150/1/3 149/1/3
f 152/1/3 150/1/3 151/1/3
f 155/1/3 154/1/3 153/1/3
f 156/1/3 154/1/3 155/1/3
f 157/1/4 158/1/4 159/1/4
f 159/1/4 158/1/4 160/1/4
f 161/1/4 162/1/4 163/1/4
f 163/1/4 162/1/4 164/1/4
f 165/1/4 166/1/4 167/1/4
f 167/1/4 166/1/4 168/1/4
f 169/1/4 170/1/4 171/1/4
f 171/1/4 170/1/4 172/1/4
f 173/1/4 174/1/4 175/1/4
f 175/1/4 176/1/4 177/1/4
f 175/1/4 177/1/4 181/1/4
f 177/1/4 178/1/4 181/1/4
f 178/2/4 179/2/4 182/2/4
f 181/1/4 178/1/4 182/1/4
f 182/2/4 179/2/4 183/2/4
f 183/2/4 179/2/4 184/2/4
f 179/1/4 180/1/4 185/1/4
f 184/2/4 179/2/4 185/2/4
f 185/1/4 180/1/4 186/1/4
f 173/1/4 175/1/4 188/1/4
f 175/1/4 181/1/4 188/1/4
f 181/2/4 182/2/4 189/2/4
f 188/1/4 181/1/4 189/1/4
f 182/2/4 183/2/4 189/2/4
f 189/2/4 183/2/4 190/2/4
f 183/1/4 184/1/4 191/1/4
f 190/2/4 183/2/4 191/2/4
f 186/2/4 187/2/4 192/2/4
f 191/1/4 184/1/4 192/1/4
f 185/2/4 186/2/4 192/2/4
f 184/2/4 185/2/4 192/2/4
f 192/2/4 187/2/4 193/2/4
f 193/2/4 187/2/4 194/2/4
f 194/2/4 187/2/4 195/2/4
f 189/2/4 190/2/4 197/2/4
f 188/2/4 189/2/4 197/2/4
f 190/1/4 191/1/4 198/1/4
f 197/2/4 190/2/4 198/2/4
f 191/2/4 192/2/4 199/2/4
f 192/2/4 193/2/4 199/2/4
f 199/2/4 193/2/4 200/2/4
f 193/1/4 194/1/4 201/1/4
f 200/2/4 193/2/4 201/2/4
f 195/2/4 196/2/4 202/2/4
f 201/1/4 194/1/4 202/1/4
f 194/2/4 195/2/4 202/2/4
f 202/2/4 196/2/4 203/2/4
f 203/2/4 196/2/4 204/2/4
f 200/2/4 201/2/4 206/2/4
f 199/1/4 200/1/4 206/1/4
f 201/2/4 202/2/4 206/2/4
f 206/2/4 202/2/4 207/2/4
f 188/2/4 197/2/4 208/2/4
f 197/1/4 198/1/4 208/1/4
f 198/1/4 191/1/4 209/1/4
f 208/1/4 198/1/4 209/1/4
f 207/2/4 202/2/4 210/2/4
f 202/1/4 203/1/4 210/1/4
f 203/2/4 204/2/4 211/2/4
f 210/1/4 203/1/4 211/1/4
f 173/1/4 188/1/4 212/1/4
f 188/2/4 208/2/4 212/2/4
f 208/2/4 209/2/4 212/2/4
f 212/2/4 209/2/4 213/2/4
f 191/2/4 199/2/4 214/2/4
f 206/1/4 207/1/4 214/1/4
f 199/1/4 206/1/4 214/1/4
f 210/2/4 211/2/4 215/2/4
f 214/1/4 207/1/4 215/1/4
f 207/2/4 210/2/4 215/2/4
f 209/1/4 191/1/4 216/1/4
f 213/2/4 209/2/4 216/2/4
f 214/2/4 215/2/4 217/2/4
f 216/1/4 191/1/4 217/1/4
f 191/2/4 214/2/4 217/2/4
f 217/2/4 215/2/4 218/2/4
f 215/2/4 211/2/4 219/2/4
f 218/2/4 215/2/4 219/2/4
f 211/2/4 204/2/4 220/2/4
f 219/2/4 211/2/4 220/2/4
f 173/1/4 212/1/4 221/1/4
f 212/1/4 213/1/4 221/1/4
f 221/1/4 213/1/4 222/1/4
f 213/2/4 216/2/4 223/2/4
f 222/1/4 213/1/4 223/1/4
f 216/2/4 217/2/4 223/2/4
f 223/2/4 217/2/4 224/2/4
f 217/1/4 218/1/4 225/1/4
f 224/2/4 217/2/4 225/2/4
f 225/1/4 218/1/4 226/1/4
f 218/2/4 219/2/4 227/2/4
f 226/1/4 218/1/4 227/1/4
f 219/1/4 220/1/4 228/1/4
f 227/2/4 219/2/4 228/2/4
f 220/2/4 204/2/4 229/2/4
f 228/1/4 220/1/4 229/1/4
f 204/1/4 205/1/4 230/1/4
f 229/2/4 204/2/4 230/2/4
f 230/1/4 205/1/4 231/1/4
f 223/1/4 224/1/4 232/1/4
f 222/1/4 223/1/4 232/1/4
f 232/1/4 224/1/4 233/1/4
f 225/2/4 226/2/4 234/2/4
f 233/1/4 224/1/4 234/1/4
f 224/2/4 225/2/4 234/2/4
f 234/2/4 226/2/4 235/2/4
f 227/1/4 228/1/4 236/1/4
f 235/2/4 226/2/4 236/2/4
f 226/1/4 227/1/4 236/1/4
f 228/2/4 229/2/4 237/2/4
f 236/1/4 228/1/4 237/1/4
f 229/2/4 230/2/4 237/2/4
f 237/2/4 230/2/4 238/2/4
f 238/2/4 230/2/4 239/2/4
f 234/1/4 235/1/4 240/1/4
f 233/1/4 234/1/4 240/1/4
f 240/1/4 235/1/4 241/1/4
f 235/2/4 236/2/4 242/2/4
f 241/1/4 235/1/4 242/1/4
f 237/2/4 238/2/4 242/2/4
f 236/2/4 237/2/4 242/2/4
f 242/2/4 238/2/4 243/2/4
f 243/2/4 238/2/4 244/2/4
f 241/1/4 242/1/4 245/1/4
f 242/1/4 243/1/4 245/1/4
f 245/1/4 243/1/4 246/1/4
f 250/1/5 248/1/5 247/1/5
f 251/1/5 250/1/5 249/1/5
f 252/1/5 248/1/5 250/1/5
f 252/1/5 250/1/5 251/1/5
f 253/1/5 248/1/5 252/1/5
f 254/1/5 248/1/5 253/1/5
f 257/1/5 256/1/5 255/1/5
f 258/1/5 256/1/5 257/1/5
f 261/1/5 260/1/5 259/1/5
f 262/1/5 260/1/5 261/1/5
f 265/1/5 264/1/5 263/1/5
f 266/1/5 264/1/5 265/1/5
f 267/1/6 268/1/6 270/1/6
f 270/1/6 268/1/6 271/1/6
f 271/1/6 268/1/6 272/1/6
f 269/1/6 270/1/6 273/1/6
f 270/1/6 271/1/6 273/1/6
f 269/1/6 273/1/6 274/1/6
f 274/1/6 273/1/6 275/1/6
f 269/1/6 274/1/6 276/1/6
f 276/1/6 277/1/6 278/1/6
f 276/1/6 278/1/6 280/1/6
f 278/1/6 279/1/6 280/1/6
f 269/1/6 276/1/6 280/1/6
f 280/1/6 279/1/6 281/1/6
f 281/1/6 279/1/6 282/1/6
f 281/1/6 282/1/6 284/1/6
f 282/1/6 283/1/6 284/1/6
f 284/1/6 283/1/6 285/1/6
f 286/1/6 287/1/6 289/1/6
f 288/1/6 289/1/6 290/1/6
f 289/1/6 287/1/6 291/1/6
f 290/1/6 289/1/6 291/1/6
f 290/2/6 291/2/6 293/2/6
f 291/1/6 287/1/6 294/1/6
f 293/2/6 291/2/6 294/2/6
f 294/1/6 287/1/6 295/1/6
f 292/1/6 293/1/6 296/1/6
f 293/2/6 294/2/6 296/2/6
f 294/2/6 295/2/6 296/2/6
f 296/2/6 295/2/6 297/2/6
f 295/1/6 287/1/6 298/1/6
f 297/2/6 295/2/6 298/2/6
f 298/1/6 287/1/6 299/1/6
f 296/1/6 297/1/6 300/1/6
f 297/2/6 298/2/6 300/2/6
f 298/2/6 299/2/6 300/2/6
f 300/2/6 299/2/6 301/2/6
f 292/1/6 296/1/6 302/1/6
f 296/1/6 300/1/6 302/1/6
f 300/1/6 301/1/6 302/1/6
f 302/1/6 301/1/6 303/1/6
f 303/1/6 301/1/6 304/1/6
f 304/1/6 301/1/6 305/1/6
f 301/2/6 299/2/6 306/2/6
f 305/1/6 301/1/6 306/1/6
f 299/1/6 287/1/6 307/1/6
f 306/2/6 299/2/6 307/2/6
f 305/1/6 306/1/6 308/1/6
f 306/1/6 307/1/6 308/1/6
f 308/1/6 307/1/6 309/1/6
f 309/1/6 307/1/6 310/1/6
f 307/1/6 287/1/6 311/1/6
f 310/1/6 307/1/6 311/1/6
f 314/1/6 315/1/6 316/1/6
f 312/1/6 313/1/6 317/1/6
f 316/1/6 315/1/6 318/1/6
f 312/1/6 317/1/6 319/1/6
f 319/1/6 317/1/6 320/1/6
f 318/1/6 315/1/6 321/1/6
f 321/1/6 315/1/6 322/1/6
f 325/2/6 326/2/6 327/2/6
f 327/2/6 326/2/6 328/2/6
f 323/1/6 324/1/6 329/1/6
f 329/1/6 324/1/6 330/1/6
f 327/1/6 328/1/6 331/1/6
f 331/1/6 328/1/6 332/1/6
f 329/2/6 330/2/6 333/2/6
f 333/2/6 330/2/6 334/2/6
f 331/2/6 332/2/6 335/2/6
f 335/2/6 332/2/6 336/2/6
f 337/1/6 338/1/6 341/1/6
f 341/1/6 338/1/6 342/1/6
f 339/1/6 340/1/6 343/1/6
f 343/1/6 340/1/6 344/1/6
f 341/2/6 342/2/6 345/2/6
f 345/2/6 342/2/6 346/2/6
f 343/2/6 344/2/6 347/2/6
f 347/2/6 344/2/6 348/2/6
f 349/1/6 350/1/6 351/1/6
f 351/1/6 350/1/6 352/1/6
