# MagicaVoxel @ Ephtracy

# group
o 

# material
mtllib терминал.mtl
usemtl palette

# normals
vn -1 0 0
vn 1 0 0
vn 0 0 1
vn 0 0 -1
vn 0 -1 0
vn 0 1 0

# texcoords
vt 0.00585938 0.5
vt 0.00976562 0.5
vt 0.716797 0.5
vt 0.982422 0.5
vt 0.990234 0.5
vt 0.994141 0.5

# verts
v -0.9 0 0.7
v -0.9 0 -1.2
v -0.9 0.1 0.7
v -0.9 0.1 -1.2
v -0.9 2.5 0.8
v -0.9 2.5 0.7
v -0.9 2.6 1.7
v -0.9 2.6 0.8
v -0.9 2.7 1.7
v -0.9 2.7 1
v -0.9 2.7 0.7
v -0.9 2.8 1.7
v -0.9 2.8 1
v -0.9 3.9 0.7
v -0.9 3.9 -1.2
v -0.8 2.8 1.6
v -0.8 2.8 1.5
v -0.8 2.8 1.3
v -0.8 2.8 1.2
v -0.8 2.8 1.1
v -0.8 2.8 1
v -0.8 2.9 1.6
v -0.8 2.9 1.5
v -0.8 2.9 1.3
v -0.8 2.9 1.2
v -0.8 2.9 1.1
v -0.8 2.9 1
v -0.8 3.9 0.7
v -0.8 3.9 -1.1
v -0.8 4 0.7
v -0.8 4 -1.1
v -0.6 2.8 1.6
v -0.6 2.8 1.5
v -0.6 2.8 1.1
v -0.6 2.8 1
v -0.6 2.9 1.6
v -0.6 2.9 1.5
v -0.6 2.9 1.1
v -0.6 2.9 1
v -0.5 2.8 1.3
v -0.5 2.8 1.2
v -0.5 2.9 1.3
v -0.5 2.9 1.2
v -0.5 2.9 0.7
v -0.5 2.9 0.6
v -0.5 3.8 0.7
v -0.5 3.8 0.6
v -0.4 2.8 1.1
v -0.4 2.8 1
v -0.4 2.9 1.1
v -0.4 2.9 1
v -0.3 2.8 1.6
v -0.3 2.8 1.5
v -0.3 2.8 1.3
v -0.3 2.8 1.2
v -0.3 2.9 1.6
v -0.3 2.9 1.5
v -0.3 2.9 1.3
v -0.3 2.9 1.2
v -0.2 2.8 1.1
v -0.2 2.8 1
v -0.2 2.9 1.1
v -0.2 2.9 1
v 0 2.8 1.3
v 0 2.8 1.2
v 0 2.8 1.1
v 0 2.8 1
v 0 2.9 1.3
v 0 2.9 1.2
v 0 2.9 1.1
v 0 2.9 1
v 0.2 2.8 1.3
v 0.2 2.8 1.2
v 0.2 2.8 1.1
v 0.2 2.8 1
v 0.2 2.9 1.3
v 0.2 2.9 1.2
v 0.2 2.9 1.1
v 0.2 2.9 1
v 0.3 2.9 -1.1
v 0.3 2.9 -1.2
v 0.3 3 -1.1
v 0.3 3 -1.2
v 0.4 2.8 1.1
v 0.4 2.8 1
v 0.4 2.9 1.1
v 0.4 2.9 1
v 0.5 2.8 1.3
v 0.5 2.8 1.2
v 0.5 2.9 1.3
v 0.5 2.9 1.2
v 0.6 2.8 1.6
v 0.6 2.8 1.5
v 0.6 2.8 1.1
v 0.6 2.8 1
v 0.6 2.9 1.6
v 0.6 2.9 1.5
v 0.6 2.9 1.1
v 0.6 2.9 1
v 0.7 2.8 1.5
v 0.7 2.8 1.4
v 0.7 2.8 1.3
v 0.7 2.8 1.2
v 0.7 2.8 0.7
v 0.7 2.8 0.6
v 0.7 2.9 1.5
v 0.7 2.9 1.4
v 0.7 2.9 1.3
v 0.7 2.9 1.2
v 0.7 3.9 0.7
v 0.7 3.9 0.6
v 0.8 2.8 1.1
v 0.8 2.8 1
v 0.8 2.9 1.1
v 0.8 2.9 1
v -0.7 2.8 1.6
v -0.7 2.8 1.5
v -0.7 2.8 1.3
v -0.7 2.8 1.2
v -0.7 2.8 1.1
v -0.7 2.8 1
v -0.7 2.9 1.6
v -0.7 2.9 1.5
v -0.7 2.9 1.3
v -0.7 2.9 1.2
v -0.7 2.9 1.1
v -0.7 2.9 1
v -0.6 2.8 0.7
v -0.6 2.8 0.6
v -0.6 3.9 0.7
v -0.6 3.9 0.6
v -0.5 2.8 1.1
v -0.5 2.8 1
v -0.5 2.9 1.1
v -0.5 2.9 1
v -0.4 2.8 1.6
v -0.4 2.8 1.5
v -0.4 2.8 1.3
v -0.4 2.8 1.2
v -0.4 2.9 1.6
v -0.4 2.9 1.5
v -0.4 2.9 1.3
v -0.4 2.9 1.2
v -0.3 2.8 1.1
v -0.3 2.8 1
v -0.3 2.9 1.1
v -0.3 2.9 1
v -0.2 2.8 1.3
v -0.2 2.8 1.2
v -0.2 2.9 1.3
v -0.2 2.9 1.2
v -0.1 2.8 1.1
v -0.1 2.8 1
v -0.1 2.9 1.1
v -0.1 2.9 1
v 0.1 2.8 1.3
v 0.1 2.8 1.2
v 0.1 2.8 1.1
v 0.1 2.8 1
v 0.1 2.9 1.3
v 0.1 2.9 1.2
v 0.1 2.9 1.1
v 0.1 2.9 1
v 0.2 2.9 -1.1
v 0.2 2.9 -1.2
v 0.2 3 -1.1
v 0.2 3 -1.2
v 0.3 2.8 1.3
v 0.3 2.8 1.2
v 0.3 2.8 1.1
v 0.3 2.8 1
v 0.3 2.9 1.3
v 0.3 2.9 1.2
v 0.3 2.9 1.1
v 0.3 2.9 1
v 0.5 2.8 1.6
v 0.5 2.8 1.5
v 0.5 2.8 1.1
v 0.5 2.8 1
v 0.5 2.9 1.6
v 0.5 2.9 1.5
v 0.5 2.9 1.1
v 0.5 2.9 1
v 0.6 2.8 1.3
v 0.6 2.8 1.2
v 0.6 2.9 1.3
v 0.6 2.9 1.2
v 0.6 2.9 0.7
v 0.6 2.9 0.6
v 0.6 3.8 0.7
v 0.6 3.8 0.6
v 0.7 2.8 1.1
v 0.7 2.8 1
v 0.7 2.9 1.1
v 0.7 2.9 1
v 0.8 2.8 1.5
v 0.8 2.8 1.4
v 0.8 2.9 1.5
v 0.8 2.9 1.4
v 0.9 2.8 1.6
v 0.9 2.8 1.5
v 0.9 2.8 1.3
v 0.9 2.8 1.2
v 0.9 2.8 1.1
v 0.9 2.8 1
v 0.9 2.9 1.6
v 0.9 2.9 1.5
v 0.9 2.9 1.3
v 0.9 2.9 1.2
v 0.9 2.9 1.1
v 0.9 2.9 1
v 0.9 3.9 0.7
v 0.9 3.9 -1.1
v 0.9 4 0.7
v 0.9 4 -1.1
v 1 0 0.7
v 1 0 -1.2
v 1 0.1 0.7
v 1 0.1 -1.2
v 1 2.5 0.8
v 1 2.5 0.7
v 1 2.6 1.7
v 1 2.6 0.8
v 1 2.7 1.7
v 1 2.7 1
v 1 2.7 0.7
v 1 2.8 1.7
v 1 2.8 1
v 1 3.9 0.7
v 1 3.9 -1.2
v -0.9 2.6 1.7
v -0.9 2.7 1.7
v -0.9 2.8 1.7
v 1 2.6 1.7
v 1 2.7 1.7
v 1 2.8 1.7
v -0.8 2.8 1.6
v -0.8 2.9 1.6
v -0.7 2.8 1.6
v -0.7 2.9 1.6
v -0.6 2.8 1.6
v -0.6 2.9 1.6
v -0.4 2.8 1.6
v -0.4 2.9 1.6
v -0.3 2.8 1.6
v -0.3 2.9 1.6
v 0.5 2.8 1.6
v 0.5 2.9 1.6
v 0.6 2.8 1.6
v 0.6 2.9 1.6
v 0.9 2.8 1.6
v 0.9 2.9 1.6
v -0.8 2.8 1.3
v -0.8 2.9 1.3
v -0.7 2.8 1.3
v -0.7 2.9 1.3
v -0.5 2.8 1.3
v -0.5 2.9 1.3
v -0.4 2.8 1.3
v -0.4 2.9 1.3
v -0.3 2.8 1.3
v -0.3 2.9 1.3
v -0.2 2.8 1.3
v -0.2 2.9 1.3
v 0 2.8 1.3
v 0 2.9 1.3
v 0.1 2.8 1.3
v 0.1 2.9 1.3
v 0.2 2.8 1.3
v 0.2 2.9 1.3
v 0.3 2.8 1.3
v 0.3 2.9 1.3
v 0.5 2.8 1.3
v 0.5 2.9 1.3
v 0.6 2.8 1.3
v 0.6 2.9 1.3
v 0.7 2.8 1.3
v 0.7 2.9 1.3
v 0.9 2.8 1.3
v 0.9 2.9 1.3
v -0.8 2.8 1.1
v -0.8 2.9 1.1
v -0.7 2.8 1.1
v -0.7 2.9 1.1
v -0.6 2.8 1.1
v -0.6 2.9 1.1
v -0.5 2.8 1.1
v -0.5 2.9 1.1
v -0.4 2.8 1.1
v -0.4 2.9 1.1
v -0.3 2.8 1.1
v -0.3 2.9 1.1
v -0.2 2.8 1.1
v -0.2 2.9 1.1
v -0.1 2.8 1.1
v -0.1 2.9 1.1
v 0 2.8 1.1
v 0 2.9 1.1
v 0.1 2.8 1.1
v 0.1 2.9 1.1
v 0.2 2.8 1.1
v 0.2 2.9 1.1
v 0.3 2.8 1.1
v 0.3 2.9 1.1
v 0.4 2.8 1.1
v 0.4 2.9 1.1
v 0.5 2.8 1.1
v 0.5 2.9 1.1
v 0.6 2.8 1.1
v 0.6 2.9 1.1
v 0.7 2.8 1.1
v 0.7 2.9 1.1
v 0.8 2.8 1.1
v 0.8 2.9 1.1
v 0.9 2.8 1.1
v 0.9 2.9 1.1
v -0.9 2.5 0.8
v -0.9 2.6 0.8
v 1 2.5 0.8
v 1 2.6 0.8
v -0.9 0 0.7
v -0.9 0.1 0.7
v -0.9 2.5 0.7
v -0.9 2.7 0.7
v -0.9 3.9 0.7
v -0.8 3.9 0.7
v -0.8 4 0.7
v -0.7 2.7 0.7
v -0.7 3.9 0.7
v -0.6 2.8 0.7
v -0.6 3.9 0.7
v -0.5 2.9 0.7
v -0.5 3.8 0.7
v -0.4 3.2 0.7
v -0.4 3.3 0.7
v -0.4 3.6 0.7
v -0.4 3.7 0.7
v -0.3 3.2 0.7
v -0.3 3.3 0.7
v -0.3 3.4 0.7
v -0.3 3.5 0.7
v -0.3 3.6 0.7
v -0.3 3.7 0.7
v -0.2 3.3 0.7
v -0.2 3.4 0.7
v -0.2 3.5 0.7
v -0.2 3.6 0.7
v -0.1 3.4 0.7
v -0.1 3.5 0.7
v 0 3.4 0.7
v 0 3.5 0.7
v 0.2 3.4 0.7
v 0.2 3.5 0.7
v 0.3 3.4 0.7
v 0.3 3.5 0.7
v 0.5 3.4 0.7
v 0.5 3.5 0.7
v 0.6 2.9 0.7
v 0.6 3.8 0.7
v 0.7 2.8 0.7
v 0.7 3.9 0.7
v 0.8 2.7 0.7
v 0.8 3.9 0.7
v 0.9 3.9 0.7
v 0.9 4 0.7
v 1 0 0.7
v 1 0.1 0.7
v 1 2.5 0.7
v 1 2.7 0.7
v 1 3.9 0.7
v -0.6 2.8 0.6
v -0.6 3.9 0.6
v -0.5 2.9 0.6
v -0.5 3.8 0.6
v 0.6 2.9 0.6
v 0.6 3.8 0.6
v 0.7 2.8 0.6
v 0.7 3.9 0.6
v -0.8 2.8 1.5
v -0.8 2.9 1.5
v -0.7 2.8 1.5
v -0.7 2.9 1.5
v -0.6 2.8 1.5
v -0.6 2.9 1.5
v -0.4 2.8 1.5
v -0.4 2.9 1.5
v -0.3 2.8 1.5
v -0.3 2.9 1.5
v 0.5 2.8 1.5
v 0.5 2.9 1.5
v 0.6 2.8 1.5
v 0.6 2.9 1.5
v 0.7 2.8 1.5
v 0.7 2.9 1.5
v 0.8 2.8 1.5
v 0.8 2.9 1.5
v 0.9 2.8 1.5
v 0.9 2.9 1.5
v 0.7 2.8 1.4
v 0.7 2.9 1.4
v 0.8 2.8 1.4
v 0.8 2.9 1.4
v -0.8 2.8 1.2
v -0.8 2.9 1.2
v -0.7 2.8 1.2
v -0.7 2.9 1.2
v -0.5 2.8 1.2
v -0.5 2.9 1.2
v -0.4 2.8 1.2
v -0.4 2.9 1.2
v -0.3 2.8 1.2
v -0.3 2.9 1.2
v -0.2 2.8 1.2
v -0.2 2.9 1.2
v 0 2.8 1.2
v 0 2.9 1.2
v 0.1 2.8 1.2
v 0.1 2.9 1.2
v 0.2 2.8 1.2
v 0.2 2.9 1.2
v 0.3 2.8 1.2
v 0.3 2.9 1.2
v 0.5 2.8 1.2
v 0.5 2.9 1.2
v 0.6 2.8 1.2
v 0.6 2.9 1.2
v 0.7 2.8 1.2
v 0.7 2.9 1.2
v 0.9 2.8 1.2
v 0.9 2.9 1.2
v -0.9 2.7 1
v -0.9 2.8 1
v -0.8 2.8 1
v -0.8 2.9 1
v -0.7 2.8 1
v -0.7 2.9 1
v -0.6 2.8 1
v -0.6 2.9 1
v -0.5 2.8 1
v -0.5 2.9 1
v -0.4 2.8 1
v -0.4 2.9 1
v -0.3 2.8 1
v -0.3 2.9 1
v -0.2 2.8 1
v -0.2 2.9 1
v -0.1 2.8 1
v -0.1 2.9 1
v 0 2.8 1
v 0 2.9 1
v 0.1 2.8 1
v 0.1 2.9 1
v 0.2 2.8 1
v 0.2 2.9 1
v 0.3 2.8 1
v 0.3 2.9 1
v 0.4 2.8 1
v 0.4 2.9 1
v 0.5 2.8 1
v 0.5 2.9 1
v 0.6 2.8 1
v 0.6 2.9 1
v 0.7 2.8 1
v 0.7 2.9 1
v 0.8 2.8 1
v 0.8 2.9 1
v 0.9 2.8 1
v 0.9 2.9 1
v 1 2.7 1
v 1 2.8 1
v -0.8 3.9 -1.1
v -0.8 4 -1.1
v 0.2 2.9 -1.1
v 0.2 3 -1.1
v 0.3 2.9 -1.1
v 0.3 3 -1.1
v 0.9 3.9 -1.1
v 0.9 4 -1.1
v -0.9 0 -1.2
v -0.9 0.1 -1.2
v -0.9 3.9 -1.2
v 0.2 2.7 -1.2
v 0.2 2.9 -1.2
v 0.2 3 -1.2
v 0.3 2.7 -1.2
v 0.3 2.9 -1.2
v 0.3 3 -1.2
v 1 0 -1.2
v 1 0.1 -1.2
v 1 3.9 -1.2
v -0.9 0 0.7
v 1 0 0.7
v -0.9 0 -1.2
v 1 0 -1.2
v -0.9 2.5 0.8
v 1 2.5 0.8
v -0.9 2.5 0.7
v 1 2.5 0.7
v -0.9 2.6 1.7
v 1 2.6 1.7
v -0.9 2.6 0.8
v 1 2.6 0.8
v -0.5 2.9 0.7
v 0.6 2.9 0.7
v -0.5 2.9 0.6
v 0.6 2.9 0.6
v 0.2 3 -1.1
v 0.3 3 -1.1
v 0.2 3 -1.2
v 0.3 3 -1.2
v -0.6 3.9 0.7
v 0.7 3.9 0.7
v -0.6 3.9 0.6
v 0.7 3.9 0.6
v -0.9 2.7 1
v 1 2.7 1
v -0.9 2.7 0.7
v -0.7 2.7 0.7
v 0.8 2.7 0.7
v 1 2.7 0.7
v -0.9 2.8 1.7
v 1 2.8 1.7
v -0.8 2.8 1.6
v -0.7 2.8 1.6
v -0.6 2.8 1.6
v -0.4 2.8 1.6
v -0.3 2.8 1.6
v 0.5 2.8 1.6
v 0.6 2.8 1.6
v 0.9 2.8 1.6
v -0.8 2.8 1.5
v -0.7 2.8 1.5
v -0.6 2.8 1.5
v -0.4 2.8 1.5
v -0.3 2.8 1.5
v 0.5 2.8 1.5
v 0.6 2.8 1.5
v 0.7 2.8 1.5
v 0.8 2.8 1.5
v 0.9 2.8 1.5
v 0.7 2.8 1.4
v 0.8 2.8 1.4
v -0.8 2.8 1.3
v -0.7 2.8 1.3
v -0.5 2.8 1.3
v -0.4 2.8 1.3
v -0.3 2.8 1.3
v -0.2 2.8 1.3
v 0 2.8 1.3
v 0.1 2.8 1.3
v 0.2 2.8 1.3
v 0.3 2.8 1.3
v 0.5 2.8 1.3
v 0.6 2.8 1.3
v 0.7 2.8 1.3
v 0.9 2.8 1.3
v -0.8 2.8 1.2
v -0.7 2.8 1.2
v -0.5 2.8 1.2
v -0.4 2.8 1.2
v -0.3 2.8 1.2
v -0.2 2.8 1.2
v 0 2.8 1.2
v 0.1 2.8 1.2
v 0.2 2.8 1.2
v 0.3 2.8 1.2
v 0.5 2.8 1.2
v 0.6 2.8 1.2
v 0.7 2.8 1.2
v 0.9 2.8 1.2
v -0.8 2.8 1.1
v -0.7 2.8 1.1
v -0.6 2.8 1.1
v -0.5 2.8 1.1
v -0.4 2.8 1.1
v -0.3 2.8 1.1
v -0.2 2.8 1.1
v -0.1 2.8 1.1
v 0 2.8 1.1
v 0.1 2.8 1.1
v 0.2 2.8 1.1
v 0.3 2.8 1.1
v 0.4 2.8 1.1
v 0.5 2.8 1.1
v 0.6 2.8 1.1
v 0.7 2.8 1.1
v 0.8 2.8 1.1
v 0.9 2.8 1.1
v -0.9 2.8 1
v -0.8 2.8 1
v -0.7 2.8 1
v -0.6 2.8 1
v -0.5 2.8 1
v -0.4 2.8 1
v -0.3 2.8 1
v -0.2 2.8 1
v -0.1 2.8 1
v 0 2.8 1
v 0.1 2.8 1
v 0.2 2.8 1
v 0.3 2.8 1
v 0.4 2.8 1
v 0.5 2.8 1
v 0.6 2.8 1
v 0.7 2.8 1
v 0.8 2.8 1
v 0.9 2.8 1
v 1 2.8 1
v -0.6 2.8 0.7
v 0.7 2.8 0.7
v -0.6 2.8 0.6
v 0.7 2.8 0.6
v -0.8 2.9 1.6
v -0.7 2.9 1.6
v -0.6 2.9 1.6
v -0.4 2.9 1.6
v -0.3 2.9 1.6
v 0.5 2.9 1.6
v 0.6 2.9 1.6
v 0.9 2.9 1.6
v -0.8 2.9 1.5
v -0.7 2.9 1.5
v -0.6 2.9 1.5
v -0.4 2.9 1.5
v -0.3 2.9 1.5
v 0.5 2.9 1.5
v 0.6 2.9 1.5
v 0.7 2.9 1.5
v 0.8 2.9 1.5
v 0.9 2.9 1.5
v 0.7 2.9 1.4
v 0.8 2.9 1.4
v -0.8 2.9 1.3
v -0.7 2.9 1.3
v -0.5 2.9 1.3
v -0.4 2.9 1.3
v -0.3 2.9 1.3
v -0.2 2.9 1.3
v 0 2.9 1.3
v 0.1 2.9 1.3
v 0.2 2.9 1.3
v 0.3 2.9 1.3
v 0.5 2.9 1.3
v 0.6 2.9 1.3
v 0.7 2.9 1.3
v 0.9 2.9 1.3
v -0.8 2.9 1.2
v -0.7 2.9 1.2
v -0.5 2.9 1.2
v -0.4 2.9 1.2
v -0.3 2.9 1.2
v -0.2 2.9 1.2
v 0 2.9 1.2
v 0.1 2.9 1.2
v 0.2 2.9 1.2
v 0.3 2.9 1.2
v 0.5 2.9 1.2
v 0.6 2.9 1.2
v 0.7 2.9 1.2
v 0.9 2.9 1.2
v -0.8 2.9 1.1
v -0.7 2.9 1.1
v -0.6 2.9 1.1
v -0.5 2.9 1.1
v -0.4 2.9 1.1
v -0.3 2.9 1.1
v -0.2 2.9 1.1
v -0.1 2.9 1.1
v 0 2.9 1.1
v 0.1 2.9 1.1
v 0.2 2.9 1.1
v 0.3 2.9 1.1
v 0.4 2.9 1.1
v 0.5 2.9 1.1
v 0.6 2.9 1.1
v 0.7 2.9 1.1
v 0.8 2.9 1.1
v 0.9 2.9 1.1
v -0.8 2.9 1
v -0.7 2.9 1
v -0.6 2.9 1
v -0.5 2.9 1
v -0.4 2.9 1
v -0.3 2.9 1
v -0.2 2.9 1
v -0.1 2.9 1
v 0 2.9 1
v 0.1 2.9 1
v 0.2 2.9 1
v 0.3 2.9 1
v 0.4 2.9 1
v 0.5 2.9 1
v 0.6 2.9 1
v 0.7 2.9 1
v 0.8 2.9 1
v 0.9 2.9 1
v 0.2 2.9 -1.1
v 0.3 2.9 -1.1
v 0.2 2.9 -1.2
v 0.3 2.9 -1.2
v -0.5 3.8 0.7
v 0.6 3.8 0.7
v -0.5 3.8 0.6
v 0.6 3.8 0.6
v -0.9 3.9 0.7
v -0.8 3.9 0.7
v 0.9 3.9 0.7
v 1 3.9 0.7
v -0.8 3.9 -1.1
v 0.9 3.9 -1.1
v -0.9 3.9 -1.2
v 1 3.9 -1.2
v -0.8 4 0.7
v 0.9 4 0.7
v -0.8 4 -1.1
v 0.9 4 -1.1

# faces
f 3/5/1 2/5/1 1/5/1
f 4/5/1 2/5/1 3/5/1
f 6/4/1 4/4/1 3/4/1
f 8/4/1 6/4/1 5/4/1
f 9/4/1 8/4/1 7/4/1
f 10/4/1 8/4/1 9/4/1
f 11/4/1 4/4/1 6/4/1
f 11/4/1 8/4/1 10/4/1
f 11/4/1 6/4/1 8/4/1
f 12/2/1 10/2/1 9/2/1
f 13/2/1 10/2/1 12/2/1
f 14/4/1 4/4/1 11/4/1
f 15/4/1 4/4/1 14/4/1
f 22/1/1 17/1/1 16/1/1
f 23/1/1 17/1/1 22/1/1
f 24/1/1 19/1/1 18/1/1
f 25/1/1 19/1/1 24/1/1
f 26/1/1 21/1/1 20/1/1
f 27/1/1 21/1/1 26/1/1
f 30/4/1 29/4/1 28/4/1
f 31/4/1 29/4/1 30/4/1
f 36/1/1 33/1/1 32/1/1
f 37/1/1 33/1/1 36/1/1
f 38/1/1 35/1/1 34/1/1
f 39/1/1 35/1/1 38/1/1
f 42/1/1 41/1/1 40/1/1
f 43/1/1 41/1/1 42/1/1
f 46/6/1 45/6/1 44/6/1
f 47/6/1 45/6/1 46/6/1
f 50/1/1 49/1/1 48/1/1
f 51/1/1 49/1/1 50/1/1
f 56/1/1 53/1/1 52/1/1
f 57/1/1 53/1/1 56/1/1
f 58/1/1 55/1/1 54/1/1
f 59/1/1 55/1/1 58/1/1
f 62/1/1 61/1/1 60/1/1
f 63/1/1 61/1/1 62/1/1
f 68/1/1 65/1/1 64/1/1
f 69/1/1 65/1/1 68/1/1
f 70/1/1 67/1/1 66/1/1
f 71/1/1 67/1/1 70/1/1
f 76/1/1 73/1/1 72/1/1
f 77/1/1 73/1/1 76/1/1
f 78/1/1 75/1/1 74/1/1
f 79/1/1 75/1/1 78/1/1
f 82/4/1 81/4/1 80/4/1
f 83/4/1 81/4/1 82/4/1
f 86/1/1 85/1/1 84/1/1
f 87/1/1 85/1/1 86/1/1
f 90/1/1 89/1/1 88/1/1
f 91/1/1 89/1/1 90/1/1
f 96/1/1 93/1/1 92/1/1
f 97/1/1 93/1/1 96/1/1
f 98/1/1 95/1/1 94/1/1
f 99/1/1 95/1/1 98/1/1
f 106/1/1 101/1/1 100/1/1
f 107/1/1 101/1/1 106/1/1
f 108/1/1 103/1/1 102/1/1
f 109/1/1 103/1/1 108/1/1
f 110/1/1 105/1/1 104/1/1
f 111/1/1 105/1/1 110/1/1
f 114/1/1 113/1/1 112/1/1
f 115/1/1 113/1/1 114/1/1
f 116/1/2 117/1/2 122/1/2
f 122/1/2 117/1/2 123/1/2
f 118/1/2 119/1/2 124/1/2
f 124/1/2 119/1/2 125/1/2
f 120/1/2 121/1/2 126/1/2
f 126/1/2 121/1/2 127/1/2
f 128/1/2 129/1/2 130/1/2
f 130/1/2 129/1/2 131/1/2
f 132/1/2 133/1/2 134/1/2
f 134/1/2 133/1/2 135/1/2
f 136/1/2 137/1/2 140/1/2
f 140/1/2 137/1/2 141/1/2
f 138/1/2 139/1/2 142/1/2
f 142/1/2 139/1/2 143/1/2
f 144/1/2 145/1/2 146/1/2
f 146/1/2 145/1/2 147/1/2
f 148/1/2 149/1/2 150/1/2
f 150/1/2 149/1/2 151/1/2
f 152/1/2 153/1/2 154/1/2
f 154/1/2 153/1/2 155/1/2
f 156/1/2 157/1/2 160/1/2
f 160/1/2 157/1/2 161/1/2
f 158/1/2 159/1/2 162/1/2
f 162/1/2 159/1/2 163/1/2
f 164/4/2 165/4/2 166/4/2
f 166/4/2 165/4/2 167/4/2
f 168/1/2 169/1/2 172/1/2
f 172/1/2 169/1/2 173/1/2
f 170/1/2 171/1/2 174/1/2
f 174/1/2 171/1/2 175/1/2
f 176/1/2 177/1/2 180/1/2
f 180/1/2 177/1/2 181/1/2
f 178/1/2 179/1/2 182/1/2
f 182/1/2 179/1/2 183/1/2
f 184/1/2 185/1/2 186/1/2
f 186/1/2 185/1/2 187/1/2
f 188/6/2 189/6/2 190/6/2
f 190/6/2 189/6/2 191/6/2
f 192/1/2 193/1/2 194/1/2
f 194/1/2 193/1/2 195/1/2
f 196/1/2 197/1/2 198/1/2
f 198/1/2 197/1/2 199/1/2
f 200/1/2 201/1/2 206/1/2
f 206/1/2 201/1/2 207/1/2
f 202/1/2 203/1/2 208/1/2
f 208/1/2 203/1/2 209/1/2
f 204/1/2 205/1/2 210/1/2
f 210/1/2 205/1/2 211/1/2
f 212/4/2 213/4/2 214/4/2
f 214/4/2 213/4/2 215/4/2
f 216/5/2 217/5/2 218/5/2
f 218/5/2 217/5/2 219/5/2
f 218/4/2 219/4/2 221/4/2
f 220/4/2 221/4/2 223/4/2
f 222/4/2 223/4/2 224/4/2
f 224/4/2 223/4/2 225/4/2
f 221/4/2 219/4/2 226/4/2
f 225/4/2 223/4/2 226/4/2
f 223/4/2 221/4/2 226/4/2
f 224/2/2 225/2/2 227/2/2
f 227/2/2 225/2/2 228/2/2
f 226/4/2 219/4/2 229/4/2
f 229/4/2 219/4/2 230/4/2
f 234/4/3 232/4/3 231/4/3
f 235/2/3 233/2/3 232/2/3
f 235/4/3 232/4/3 234/4/3
f 236/2/3 233/2/3 235/2/3
f 239/1/3 238/1/3 237/1/3
f 240/1/3 238/1/3 239/1/3
f 243/1/3 242/1/3 241/1/3
f 244/1/3 242/1/3 243/1/3
f 247/1/3 246/1/3 245/1/3
f 248/1/3 246/1/3 247/1/3
f 251/1/3 250/1/3 249/1/3
f 252/1/3 250/1/3 251/1/3
f 255/1/3 254/1/3 253/1/3
f 256/1/3 254/1/3 255/1/3
f 259/1/3 258/1/3 257/1/3
f 260/1/3 258/1/3 259/1/3
f 263/1/3 262/1/3 261/1/3
f 264/1/3 262/1/3 263/1/3
f 267/1/3 266/1/3 265/1/3
f 268/1/3 266/1/3 267/1/3
f 271/1/3 270/1/3 269/1/3
f 272/1/3 270/1/3 271/1/3
f 275/1/3 274/1/3 273/1/3
f 276/1/3 274/1/3 275/1/3
f 279/1/3 278/1/3 277/1/3
f 280/1/3 278/1/3 279/1/3
f 283/1/3 282/1/3 281/1/3
f 284/1/3 282/1/3 283/1/3
f 287/1/3 286/1/3 285/1/3
f 288/1/3 286/1/3 287/1/3
f 291/1/3 290/1/3 289/1/3
f 292/1/3 290/1/3 291/1/3
f 295/1/3 294/1/3 293/1/3
f 296/1/3 294/1/3 295/1/3
f 299/1/3 298/1/3 297/1/3
f 300/1/3 298/1/3 299/1/3
f 303/1/3 302/1/3 301/1/3
f 304/1/3 302/1/3 303/1/3
f 307/1/3 306/1/3 305/1/3
f 308/1/3 306/1/3 307/1/3
f 311/1/3 310/1/3 309/1/3
f 312/1/3 310/1/3 311/1/3
f 315/1/3 314/1/3 313/1/3
f 316/1/3 314/1/3 315/1/3
f 319/4/3 318/4/3 317/4/3
f 320/4/3 318/4/3 319/4/3
f 326/4/3 325/4/3 324/4/3
f 328/4/3 326/4/3 324/4/3
f 328/4/3 327/4/3 326/4/3
f 329/4/3 327/4/3 328/4/3
f 330/1/3 329/1/3 328/1/3
f 331/4/3 327/4/3 329/4/3
f 331/1/3 329/1/3 330/1/3
f 334/6/3 333/6/3 332/6/3
f 335/6/3 333/6/3 334/6/3
f 336/6/3 333/6/3 335/6/3
f 337/6/3 333/6/3 336/6/3
f 338/6/3 334/6/3 332/6/3
f 338/3/3 335/3/3 334/3/3
f 339/6/3 336/6/3 335/6/3
f 339/3/3 335/3/3 338/3/3
f 340/6/3 336/6/3 339/6/3
f 341/6/3 336/6/3 340/6/3
f 342/3/3 337/3/3 336/3/3
f 342/6/3 336/6/3 341/6/3
f 343/6/3 333/6/3 337/6/3
f 343/3/3 337/3/3 342/3/3
f 344/6/3 339/6/3 338/6/3
f 344/3/3 340/3/3 339/3/3
f 345/6/3 341/6/3 340/6/3
f 345/3/3 340/3/3 344/3/3
f 346/3/3 342/3/3 341/3/3
f 346/6/3 341/6/3 345/6/3
f 347/6/3 343/6/3 342/6/3
f 347/3/3 342/3/3 346/3/3
f 348/6/3 345/6/3 344/6/3
f 348/3/3 346/3/3 345/3/3
f 349/6/3 347/6/3 346/6/3
f 349/3/3 346/3/3 348/3/3
f 350/6/3 348/6/3 344/6/3
f 350/6/3 349/6/3 348/6/3
f 351/6/3 347/6/3 349/6/3
f 351/6/3 349/6/3 350/6/3
f 352/6/3 350/6/3 344/6/3
f 352/3/3 351/3/3 350/3/3
f 353/6/3 347/6/3 351/6/3
f 353/3/3 351/3/3 352/3/3
f 354/6/3 352/6/3 344/6/3
f 354/6/3 353/6/3 352/6/3
f 355/6/3 347/6/3 353/6/3
f 355/6/3 353/6/3 354/6/3
f 356/6/3 354/6/3 344/6/3
f 356/3/3 355/3/3 354/3/3
f 357/6/3 347/6/3 355/6/3
f 357/3/3 355/3/3 356/3/3
f 358/6/3 344/6/3 338/6/3
f 358/6/3 338/6/3 332/6/3
f 358/6/3 357/6/3 356/6/3
f 358/6/3 356/6/3 344/6/3
f 359/6/3 343/6/3 347/6/3
f 359/6/3 357/6/3 358/6/3
f 359/6/3 347/6/3 357/6/3
f 359/6/3 333/6/3 343/6/3
f 360/1/3 330/1/3 328/1/3
f 361/4/3 327/4/3 331/4/3
f 362/1/3 360/1/3 328/1/3
f 362/1/3 361/1/3 360/1/3
f 363/4/3 327/4/3 361/4/3
f 363/1/3 361/1/3 362/1/3
f 364/4/3 363/4/3 362/4/3
f 364/4/3 327/4/3 363/4/3
f 365/4/3 327/4/3 364/4/3
f 366/5/3 322/5/3 321/5/3
f 367/4/3 323/4/3 322/4/3
f 367/5/3 322/5/3 366/5/3
f 368/4/3 323/4/3 367/4/3
f 369/4/3 364/4/3 362/4/3
f 370/4/3 364/4/3 369/4/3
f 373/1/3 372/1/3 371/1/3
f 374/1/3 372/1/3 373/1/3
f 375/1/3 373/1/3 371/1/3
f 376/1/3 372/1/3 374/1/3
f 377/1/3 375/1/3 371/1/3
f 377/1/3 376/1/3 375/1/3
f 378/1/3 372/1/3 376/1/3
f 378/1/3 376/1/3 377/1/3
f 379/1/4 380/1/4 381/1/4
f 381/1/4 380/1/4 382/1/4
f 383/1/4 384/1/4 385/1/4
f 385/1/4 384/1/4 386/1/4
f 387/1/4 388/1/4 389/1/4
f 389/1/4 388/1/4 390/1/4
f 391/1/4 392/1/4 393/1/4
f 393/1/4 392/1/4 394/1/4
f 395/1/4 396/1/4 397/1/4
f 397/1/4 396/1/4 398/1/4
f 399/1/4 400/1/4 401/1/4
f 401/1/4 400/1/4 402/1/4
f 403/1/4 404/1/4 405/1/4
f 405/1/4 404/1/4 406/1/4
f 407/1/4 408/1/4 409/1/4
f 409/1/4 408/1/4 410/1/4
f 411/1/4 412/1/4 413/1/4
f 413/1/4 412/1/4 414/1/4
f 415/1/4 416/1/4 417/1/4
f 417/1/4 416/1/4 418/1/4
f 419/1/4 420/1/4 421/1/4
f 421/1/4 420/1/4 422/1/4
f 423/1/4 424/1/4 425/1/4
f 425/1/4 424/1/4 426/1/4
f 427/1/4 428/1/4 429/1/4
f 429/1/4 428/1/4 430/1/4
f 431/2/4 432/2/4 433/2/4
f 431/2/4 433/2/4 435/2/4
f 433/1/4 434/1/4 435/1/4
f 435/1/4 434/1/4 436/1/4
f 431/2/4 435/2/4 437/2/4
f 431/2/4 437/2/4 439/2/4
f 437/1/4 438/1/4 439/1/4
f 439/1/4 438/1/4 440/1/4
f 431/2/4 439/2/4 441/2/4
f 431/2/4 441/2/4 443/2/4
f 441/1/4 442/1/4 443/1/4
f 443/1/4 442/1/4 444/1/4
f 431/2/4 443/2/4 445/2/4
f 431/2/4 445/2/4 447/2/4
f 445/1/4 446/1/4 447/1/4
f 447/1/4 446/1/4 448/1/4
f 431/2/4 447/2/4 449/2/4
f 431/2/4 449/2/4 451/2/4
f 449/1/4 450/1/4 451/1/4
f 451/1/4 450/1/4 452/1/4
f 431/2/4 451/2/4 453/2/4
f 431/2/4 453/2/4 455/2/4
f 453/1/4 454/1/4 455/1/4
f 455/1/4 454/1/4 456/1/4
f 431/2/4 455/2/4 457/2/4
f 431/2/4 457/2/4 459/2/4
f 457/1/4 458/1/4 459/1/4
f 459/1/4 458/1/4 460/1/4
f 431/2/4 459/2/4 461/2/4
f 431/2/4 461/2/4 463/2/4
f 461/1/4 462/1/4 463/1/4
f 463/1/4 462/1/4 464/1/4
f 431/2/4 463/2/4 465/2/4
f 431/2/4 465/2/4 467/2/4
f 465/1/4 466/1/4 467/1/4
f 467/1/4 466/1/4 468/1/4
f 431/2/4 467/2/4 469/2/4
f 469/2/4 467/2/4 470/2/4
f 473/6/4 474/6/4 475/6/4
f 475/6/4 474/6/4 476/6/4
f 471/4/4 472/4/4 477/4/4
f 477/4/4 472/4/4 478/4/4
f 480/4/4 481/4/4 482/4/4
f 482/4/4 481/4/4 483/4/4
f 483/4/4 481/4/4 484/4/4
f 480/4/4 482/4/4 485/4/4
f 482/6/4 483/6/4 485/6/4
f 485/6/4 483/6/4 486/6/4
f 484/4/4 481/4/4 487/4/4
f 479/5/4 480/5/4 488/5/4
f 486/4/4 487/4/4 489/4/4
f 488/5/4 480/5/4 489/5/4
f 485/4/4 486/4/4 489/4/4
f 480/4/4 485/4/4 489/4/4
f 487/4/4 481/4/4 490/4/4
f 489/4/4 487/4/4 490/4/4
f 493/5/5 492/5/5 491/5/5
f 494/5/5 492/5/5 493/5/5
f 497/4/5 496/4/5 495/4/5
f 498/4/5 496/4/5 497/4/5
f 501/4/5 500/4/5 499/4/5
f 502/4/5 500/4/5 501/4/5
f 505/6/5 504/6/5 503/6/5
f 506/6/5 504/6/5 505/6/5
f 509/4/5 508/4/5 507/4/5
f 510/4/5 508/4/5 509/4/5
f 513/4/5 512/4/5 511/4/5
f 514/4/5 512/4/5 513/4/5
f 515/4/6 516/4/6 517/4/6
f 517/4/6 516/4/6 518/4/6
f 518/4/6 516/4/6 519/4/6
f 519/4/6 516/4/6 520/4/6
f 521/2/6 522/2/6 523/2/6
f 523/2/6 522/2/6 524/2/6
f 524/2/6 522/2/6 525/2/6
f 525/2/6 522/2/6 526/2/6
f 526/2/6 522/2/6 527/2/6
f 527/2/6 522/2/6 528/2/6
f 528/2/6 522/2/6 529/2/6
f 529/2/6 522/2/6 530/2/6
f 521/2/6 523/2/6 531/2/6
f 524/2/6 525/2/6 532/2/6
f 532/2/6 525/2/6 533/2/6
f 526/2/6 527/2/6 534/2/6
f 534/2/6 527/2/6 535/2/6
f 528/2/6 529/2/6 536/2/6
f 536/2/6 529/2/6 537/2/6
f 530/2/6 522/2/6 540/2/6
f 537/2/6 538/2/6 541/2/6
f 534/2/6 535/2/6 541/2/6
f 532/2/6 533/2/6 541/2/6
f 531/2/6 532/2/6 541/2/6
f 536/2/6 537/2/6 541/2/6
f 535/2/6 536/2/6 541/2/6
f 533/2/6 534/2/6 541/2/6
f 539/2/6 540/2/6 542/2/6
f 531/2/6 541/2/6 543/2/6
f 541/2/6 542/2/6 543/2/6
f 521/2/6 531/2/6 543/2/6
f 543/2/6 542/2/6 544/2/6
f 544/2/6 542/2/6 545/2/6
f 545/2/6 542/2/6 546/2/6
f 546/2/6 542/2/6 547/2/6
f 547/2/6 542/2/6 548/2/6
f 548/2/6 542/2/6 549/2/6
f 549/2/6 542/2/6 550/2/6
f 550/2/6 542/2/6 551/2/6
f 551/2/6 542/2/6 552/2/6
f 552/2/6 542/2/6 553/2/6
f 553/2/6 542/2/6 554/2/6
f 554/2/6 542/2/6 555/2/6
f 542/2/6 540/2/6 556/2/6
f 555/2/6 542/2/6 556/2/6
f 540/2/6 522/2/6 556/2/6
f 521/2/6 543/2/6 557/2/6
f 544/2/6 545/2/6 558/2/6
f 558/2/6 545/2/6 559/2/6
f 546/2/6 547/2/6 560/2/6
f 560/2/6 547/2/6 561/2/6
f 548/2/6 549/2/6 562/2/6
f 562/2/6 549/2/6 563/2/6
f 550/2/6 551/2/6 564/2/6
f 564/2/6 551/2/6 565/2/6
f 552/2/6 553/2/6 566/2/6
f 566/2/6 553/2/6 567/2/6
f 554/2/6 555/2/6 568/2/6
f 568/2/6 555/2/6 569/2/6
f 556/2/6 522/2/6 570/2/6
f 566/2/6 567/2/6 571/2/6
f 569/2/6 570/2/6 571/2/6
f 568/2/6 569/2/6 571/2/6
f 564/2/6 565/2/6 571/2/6
f 567/2/6 568/2/6 571/2/6
f 562/2/6 563/2/6 571/2/6
f 565/2/6 566/2/6 571/2/6
f 521/2/6 557/2/6 571/2/6
f 563/2/6 564/2/6 571/2/6
f 560/2/6 561/2/6 571/2/6
f 561/2/6 562/2/6 571/2/6
f 558/2/6 559/2/6 571/2/6
f 559/2/6 560/2/6 571/2/6
f 557/2/6 558/2/6 571/2/6
f 571/2/6 570/2/6 572/2/6
f 572/2/6 570/2/6 573/2/6
f 573/2/6 570/2/6 574/2/6
f 574/2/6 570/2/6 575/2/6
f 575/2/6 570/2/6 576/2/6
f 576/2/6 570/2/6 577/2/6
f 577/2/6 570/2/6 578/2/6
f 578/2/6 570/2/6 579/2/6
f 579/2/6 570/2/6 580/2/6
f 580/2/6 570/2/6 581/2/6
f 581/2/6 570/2/6 582/2/6
f 582/2/6 570/2/6 583/2/6
f 583/2/6 570/2/6 584/2/6
f 584/2/6 570/2/6 585/2/6
f 585/2/6 570/2/6 586/2/6
f 586/2/6 570/2/6 587/2/6
f 570/2/6 522/2/6 588/2/6
f 587/2/6 570/2/6 588/2/6
f 521/2/6 571/2/6 589/2/6
f 589/2/6 571/2/6 590/2/6
f 572/2/6 573/2/6 591/2/6
f 591/2/6 573/2/6 592/2/6
f 574/2/6 575/2/6 593/2/6
f 593/2/6 575/2/6 594/2/6
f 576/2/6 577/2/6 595/2/6
f 595/2/6 577/2/6 596/2/6
f 578/2/6 579/2/6 597/2/6
f 597/2/6 579/2/6 598/2/6
f 580/2/6 581/2/6 599/2/6
f 599/2/6 581/2/6 600/2/6
f 582/2/6 583/2/6 601/2/6
f 601/2/6 583/2/6 602/2/6
f 584/2/6 585/2/6 603/2/6
f 603/2/6 585/2/6 604/2/6
f 586/2/6 587/2/6 605/2/6
f 605/2/6 587/2/6 606/2/6
f 588/2/6 522/2/6 607/2/6
f 607/2/6 522/2/6 608/2/6
f 609/1/6 610/1/6 611/1/6
f 611/1/6 610/1/6 612/1/6
f 613/1/6 614/1/6 621/1/6
f 621/1/6 614/1/6 622/1/6
f 615/1/6 616/1/6 623/1/6
f 623/1/6 616/1/6 624/1/6
f 617/1/6 618/1/6 625/1/6
f 625/1/6 618/1/6 626/1/6
f 619/1/6 620/1/6 627/1/6
f 627/1/6 620/1/6 628/1/6
f 628/1/6 620/1/6 629/1/6
f 629/1/6 620/1/6 630/1/6
f 628/1/6 629/1/6 631/1/6
f 631/1/6 629/1/6 632/1/6
f 633/1/6 634/1/6 647/1/6
f 647/1/6 634/1/6 648/1/6
f 635/1/6 636/1/6 649/1/6
f 649/1/6 636/1/6 650/1/6
f 637/1/6 638/1/6 651/1/6
f 651/1/6 638/1/6 652/1/6
f 639/1/6 640/1/6 653/1/6
f 653/1/6 640/1/6 654/1/6
f 641/1/6 642/1/6 655/1/6
f 655/1/6 642/1/6 656/1/6
f 643/1/6 644/1/6 657/1/6
f 657/1/6 644/1/6 658/1/6
f 645/1/6 646/1/6 659/1/6
f 659/1/6 646/1/6 660/1/6
f 661/1/6 662/1/6 679/1/6
f 679/1/6 662/1/6 680/1/6
f 663/1/6 664/1/6 681/1/6
f 681/1/6 664/1/6 682/1/6
f 665/1/6 666/1/6 683/1/6
f 683/1/6 666/1/6 684/1/6
f 667/1/6 668/1/6 685/1/6
f 685/1/6 668/1/6 686/1/6
f 669/1/6 670/1/6 687/1/6
f 687/1/6 670/1/6 688/1/6
f 671/1/6 672/1/6 689/1/6
f 689/1/6 672/1/6 690/1/6
f 673/1/6 674/1/6 691/1/6
f 691/1/6 674/1/6 692/1/6
f 675/1/6 676/1/6 693/1/6
f 693/1/6 676/1/6 694/1/6
f 677/1/6 678/1/6 695/1/6
f 695/1/6 678/1/6 696/1/6
f 697/6/6 698/6/6 699/6/6
f 699/6/6 698/6/6 700/6/6
f 701/6/6 702/6/6 703/6/6
f 703/6/6 702/6/6 704/6/6
f 705/4/6 706/4/6 709/4/6
f 707/4/6 708/4/6 710/4/6
f 705/4/6 709/4/6 711/4/6
f 709/4/6 710/4/6 711/4/6
f 710/4/6 708/4/6 712/4/6
f 711/4/6 710/4/6 712/4/6
f 713/4/6 714/4/6 715/4/6
f 715/4/6 714/4/6 716/4/6
